<svg id="圖層_1" data-name="圖層 1" xmlns="http://www.w3.org/2000/svg" viewBox="0 0 709 122"><defs><style>.cls-1{fill:#fff;}.cls-2{fill:#00a23f;}.cls-3{fill:#231815;}.cls-4{isolation:isolate;}.cls-5{fill:#7f7f7f;}</style></defs><title>logo_1</title><rect class="cls-1" width="709" height="122"/><path d="M151.9,35.9c-1,1.7-1.7,3.6-2.9,5.3V73h-6V49.6c-1.2,1.2-2,2.6-3.2,3.6a52.9,52.9,0,0,0-3.6-6c4.5-4.1,7.8-9.4,10.5-14.9l5,1.8V32.2h5.4a15.4,15.4,0,0,1,.4-3H153V24.4h5.3c.1-1.2.4-2.9.4-3.9l5.6.4-.4,3.6h8.3v7.7h3v4.9H152V35.9Zm0-13.1A54.3,54.3,0,0,1,140,36.2a30.6,30.6,0,0,0-3.2-5,42.1,42.1,0,0,0,9.4-10.7Zm37.6,21.9h-3.6V65.5c0,3-.4,4.7-2.3,5.9a19.5,19.5,0,0,1-7.7,1.2c-.1-2-1-3.9-1.7-5.9h-5.6v6h-5.9v-6H152c.4-2.3,1-5.6,1.2-8.3h-2V53.7h11.3V50.8h-9.4V39.3H173V50.8h-4.7v2.6h6v4.7h-6v3.6h7.2v4.5h3c.7,0,1-.1,1-1v-21h-4.7V38.3h14.9Zm-26.9,17V58.1h-4a13.7,13.7,0,0,1-.4,3.6Zm-4.2-15h10.1V43.5H158.4ZM163.2,29a13.6,13.6,0,0,1-.4,3h4.1V29Zm25.5.9H175.6v-6h13.1Z" transform="translate(-1 -1)"/><path d="M244.5,64.6v6.5H194.4V64.6h21.9V53.4H201.2V46.9h15.1V37.2H204.8a50.8,50.8,0,0,1-5,8.3,51.6,51.6,0,0,0-6-3.9,50.1,50.1,0,0,0,10.1-19.9l6.9,1.7a64.8,64.8,0,0,1-2.6,7.8h8.5V20.5h6.9V30.6h18.9v6.5H223.2v9.7h16.9v6.5H223.4V64.5Z" transform="translate(-1 -1)"/><path d="M270.3,47.4H300V72.8h-6.5v-2H276.3v2.3h-6v-21l-2.6,3.6-4.1-5V73.2H257V54.3a63.3,63.3,0,0,1-5.6,4.7,25.6,25.6,0,0,0-3-6.5,42.5,42.5,0,0,0,14.2-15.6h-12v-6h7.7a52,52,0,0,0-4.1-7.8l5-2.3c1.7,2.6,3,5,4.5,7.8l-4.5,2H267l3.6,2.3c-1.2,3.9-3.6,7.8-5.6,11.3a47.8,47.8,0,0,1,5.4,4.7Zm29.8-24.5v5.6H269.9V22.9Zm-2.6,7.9V44.7H273.1V30.8ZM276.3,52.7v3.6h5.6V52.7Zm0,12.6h5.6V61.4h-5.6Zm14.9-29.4H278.7v3.8h12.5Zm2.4,16.8h-5.9v3.6h5.9Zm0,12.6V61.4h-5.9v3.9Z" transform="translate(-1 -1)"/><path d="M323.3,37.2h10.1v6H323.3V45c2.9,2.3,8.3,7.2,9.7,8.3l-3.6,5.6a78.9,78.9,0,0,0-5.9-6.6V72.2h-6.6V52.5a47.1,47.1,0,0,1-8.3,13A27.6,27.6,0,0,0,305,59a51.6,51.6,0,0,0,10.7-16h-9.4V37h10.5V30.1a43.2,43.2,0,0,1-9.4,1.2,29.1,29.1,0,0,0-1.8-5,94.6,94.6,0,0,0,22.5-5.9l4.7,5c-3,1.2-6,2-9.4,3v8.8Zm19.6,21.5h-6.6V27.4h6.6Zm12-37.1v43c0,3.9-.7,5.9-3,6.6a25.2,25.2,0,0,1-11.2,1.2,24.4,24.4,0,0,0-2.3-6.9h8.3c1.2,0,1.5-.1,1.5-1.2V21.6Z" transform="translate(-1 -1)"/><path d="M387.9,33.6c-1.2,2.6-2.3,5.6-3.6,7.8h6.5v6H361.4v-6h7.2a36,36,0,0,0-2.9-7.8l4.5-1.2h-7.5V26.5h10.5a39.4,39.4,0,0,0-1.8-4.8l6-1.7c1,2,1.8,4.5,2.6,6.5h9.5v6h-6.3Zm-23.7,18h25V72.3h-6.5V70H370.8v2.6h-6.4Zm6.2,6v6.6h11.9V57.6Zm1.2-24.8a28.6,28.6,0,0,1,3,7.8l-3.2,1H378a61,61,0,0,0,3-8.8Zm41.3-7.1a147,147,0,0,1-6.4,16.6,18.4,18.4,0,0,1,5.4,13.1c0,3.9-1,6.6-3,8.3a7,7,0,0,1-3.6,1.2h-4.5a16.1,16.1,0,0,0-1.5-6h3a4.2,4.2,0,0,0,2-.4c1-.4,1.5-1.8,1.5-3.9a14.8,14.8,0,0,0-5.4-11.3c1.7-4.1,3.2-9.7,4.7-13.9h-6.5V73H393V23.3h15.3Z" transform="translate(-1 -1)"/><path d="M431.6,43.3c0,8.8-1.2,21.6-7.8,29.7a20.9,20.9,0,0,0-5.6-3.9,28.3,28.3,0,0,0,6-14.3c-2,1.2-4.1,2.6-6,3.6l-2-5.9c2-1,5.4-2.6,8.5-4.5V41.7l-3.9,1.8c-1.5-3.6-2.9-6.6-4.7-10.1l5.4-2a49.5,49.5,0,0,1,3.2,6v-11h20a27.4,27.4,0,0,0-1.7-4.8l6.6-1.2c.7,1.8,1.7,4.1,2.3,6h16.7v5.9h-37v11Zm21.2,12.9c-1.7,6-6,12.4-17.5,16.7a20.7,20.7,0,0,0-4.5-4.8c9.4-3.2,13.1-7.7,14.9-11.9H433.3v-6h13.4V43.9h-5.4a43.8,43.8,0,0,1-3.9,6,44.8,44.8,0,0,0-5.6-3.6,28.6,28.6,0,0,0,6.9-13.9l6.4,1.2c-.4,1.2-1,2.9-1.5,4.1h22.2v5.9H453.3V50h14.2v6.3Zm4.6.1c3.9,3.6,9.4,9.4,12.1,12.5l-4.7,3.6c-2.6-3.2-7.8-8.8-11.5-13.1Z" transform="translate(-1 -1)"/><path d="M524.6,26.6v6H487.8V43.3c0,8.8-1.5,21.6-9.1,29.3a28.5,28.5,0,0,0-4.7-4.5A24.7,24.7,0,0,0,480.5,55c-2,1.2-4.1,2.6-6,3.6l-1.8-6.4,8.8-4.1V41.4L476.7,44a70.8,70.8,0,0,0-3.6-10.7l4.8-2.3a40.8,40.8,0,0,1,3.6,8.8V26.3h19a34.4,34.4,0,0,0-1.5-4.8l7.2-1.2a44,44,0,0,1,2,6.4Zm-35.5,9.2h34.6v5.6H508.5v3.9h14.2V66.1c0,2.9-.4,4.5-2.6,5.6a22.9,22.9,0,0,1-8.3,1.2,34.2,34.2,0,0,0-2-5.9h5.4c.7,0,1-.1,1-1V61.2l-4.1,3.6a52.2,52.2,0,0,0-6-6.4,17.8,17.8,0,0,1-7.2,7.2,44,44,0,0,0-3.6-4.1V72.7h-6V45.3h13V41.4H489.2Zm6.5,25.3a11.7,11.7,0,0,0,6.6-10.2h-6.6Zm20.9-10.3h-7.8c0,.7-.1,1.2-.1,2.3a76,76,0,0,1,8.3,7.8V50.7Z" transform="translate(-1 -1)"/><path d="M580.2,29h-9.7a54.6,54.6,0,0,1,4.5,3.6l-3.6,3.2h7.5v9.7H572V40.8H537.5v4.7H531V35.8h2c-1.5-1.7-2.9-3-4.5-4.5a33.5,33.5,0,0,0,8.3-11.5l5.9,1.7c-.1.7-.7,1.2-1,2.3H554v4.7a22.5,22.5,0,0,0,5.9-8.5l6,1.7a4.3,4.3,0,0,1-1,2.3h15.4v5ZM545,35.9c-1.7-1.8-3.4-3.6-5-5l2-1.8h-3.2a48.1,48.1,0,0,1-5.6,6.9Zm-.7,22.3h30.2V72.5h-6.6V71.3H544.5v1.2h-6.6V43.3h33.9V55.7H544.5l-.2,2.5Zm0-10.2v3H565V48.1Zm0,15.3v3h23.4v-3Zm11.6-31.5a15,15,0,0,0-3-2.3l.4-.4h-7.5a19.4,19.4,0,0,1,3.2,3.2l-3.9,3.6h6.4c-.4-1.2-1-2-1.5-3.2Zm13.6,4.1a33.9,33.9,0,0,0-5.4-4.8l2.3-2h-4.8a54.6,54.6,0,0,1-3.6,4.5,4.3,4.3,0,0,0-1.7-1.2,9.3,9.3,0,0,1,2,4.1Z" transform="translate(-1 -1)"/><path d="M603.7,38.3h12.4v6H603.7v4.1h10.9V62.6c0,2.6-.6,4.1-2,5a11.8,11.8,0,0,1-6.5,1,19,19,0,0,0-1.7-5.6H608c.4,0,.7,0,.7-.7V54.5h-4.8V73.1h-6.4V54.3h-4.7V68.2h-5.9V48.4h10.5V44.5H584.7v-6h4.1l-5-2a44.4,44.4,0,0,0,5-14.3l6,1.2a12.1,12.1,0,0,1-1.5,5h3.6V21.3h6.4v6.9h10.1v6h-9.9Zm-6.3,0V34.2h-5.6c-.7,1.7-1.5,3-1.8,4.1Zm27.2,18.4h-6.1V25.3h6.4V56.8Zm10.2-35.1V64.9c0,3.6-.7,5.4-2.9,6.5a18.3,18.3,0,0,1-9.5,1.2,31.8,31.8,0,0,0-1.8-6.6h6.6c1,0,1.2-.1,1.2-1.2V21.6Z" transform="translate(-1 -1)"/><path d="M674.8,50.7a52.2,52.2,0,0,1-4.7,2.6h16.2V72.9h-6.5V71.7H658.4V73h-6V60c-3,1-6.4,1.8-9.5,2.6a42.4,42.4,0,0,0-3-5.6,124.9,124.9,0,0,0,21.6-6H641.2V46h19.9V42.8H647.2V37.4h13.9V34.8H644.4V22.5h44.1V35H667.8v2.6h11.3v3.2a38.8,38.8,0,0,0,5.4-4.8l5.4,3.2a82.5,82.5,0,0,1-6.9,6h8.3v5ZM657,27h-6.4v3.6H657Zm1.8,30.6h0v2h21.4V57.3Zm21.3,8.9V64H658.7v2.6ZM663,30.3h6.4V27H663Zm4.7,15h4.7c1.5-1,3-1.8,4.5-2.9h-9.1v2.9Zm7.7-15h6.5V27h-6.5Z" transform="translate(-1 -1)"/><path class="cls-2" d="M119.1,62.2A56.5,56.5,0,1,1,62.7,5.7,56.5,56.5,0,0,1,119.1,62.2Z" transform="translate(-1 -1)"/><path class="cls-1" d="M74.2,36c-.2-1-2.2-2.9-2.8-3.2l-.4-.4a1.2,1.2,0,0,0-1.1-.5l-1.1.5a5.5,5.5,0,0,1-1.3.5.9.9,0,0,1-.6-.4c-.4-.2-.8-.7-1.4-.5a23.3,23.3,0,0,0-3.8,3.4,2.2,2.2,0,0,1-1.2.6l-2.5.7a.2.2,0,0,0-.2.2,5.8,5.8,0,0,0-1.1,2.4v.2h0a4.4,4.4,0,0,1-.2,1l-.2.8a15.4,15.4,0,0,1-1.7,3.4,3.9,3.9,0,0,0-.6,2l-1.6,2.5h0a5.1,5.1,0,0,1-.4,1.4l-1.2,1.6c0,.1-.1.1-.1.2h0s.2,1.1.2,1.3a13.3,13.3,0,0,0-.5,2.6,16.6,16.6,0,0,1-2.3,3.8h0L47,65.2h0l.2,2.6s.1,4.5.1,4.8-.3.9-.3,1.4,1,1.3,1.7,1.6l.7.2,1.1.5a9,9,0,0,0,.6,3.4,24.4,24.4,0,0,0,2.4,3.6l.2.2a5.9,5.9,0,0,1,2.9,1,2,2,0,0,0,1.2.6,3.8,3.8,0,0,1,2.8,2.2l.4.7a1.7,1.7,0,0,1,.1.7,3.3,3.3,0,0,1-.2,1.1v.2h0l1,2.6.4.4a1.8,1.8,0,0,0,1.2-.4h.1a2.3,2.3,0,0,0,1.9.4,1.2,1.2,0,0,0,.4-.7h0V90.4c-.2-3.2-.2-4.8-.6-5.3s-.1-.4-.1-.6a10.1,10.1,0,0,1,.4-2.5v-.5a8.9,8.9,0,0,1,2.2-3.7c.2-.1.2-.4.2-.4h0c0-.5.1-1.9,1-2.2s.4-.2.4-.4a8.7,8.7,0,0,1,.7-2.5,28.5,28.5,0,0,0,1.6-3V69h0s-.2-2.2-.2-2.3a40.8,40.8,0,0,0,.7-4.4c0-.8.1-3.1.2-4.1V56.6a7.1,7.1,0,0,1,.4-3.1,8.6,8.6,0,0,0,.4-2.4,11.3,11.3,0,0,1,.2-1.4,12,12,0,0,0,.5-2.3,1.7,1.7,0,0,0-.1-.7,1.3,1.3,0,0,1-.1-.6v-.4l.5-.8v-.2h0s-1.1-4.2-1.2-4.4a11,11,0,0,0,1.6-3.7Zm-2.5,3.6a.3.3,0,0,0-.1.2h0l1.2,4.5-.5.8h0v.6a2.2,2.2,0,0,0,.2,1.1v.2a19.4,19.4,0,0,1-.5,2,7.2,7.2,0,0,0-.2,1.7,14.3,14.3,0,0,1-.4,2.2,8.9,8.9,0,0,0-.4,3.5v1.5c-.1,1.1-.2,3.2-.2,4.2a32.1,32.1,0,0,1-.7,4.3h0s.2,2,.2,2.2a13.3,13.3,0,0,1-1.2,2.6,12.8,12.8,0,0,0-1,2.8c-1.2.6-1.2,2.3-1.2,2.9a10.1,10.1,0,0,0-2.3,4.1v.5a5.9,5.9,0,0,0-.5,2.5,1.8,1.8,0,0,0,.2,1.1,26.4,26.4,0,0,1,.5,4.9v1.9a3.5,3.5,0,0,1-1.4-.6H63c-.1,0-.2.2-.2.4h-.4c-.1-.5-.6-1.9-.7-2.2a3.5,3.5,0,0,0,.2-1.3,4.3,4.3,0,0,0-.2-1.1,10.6,10.6,0,0,0-1.1-1.9,4.1,4.1,0,0,0-2.4-1.4,1.9,1.9,0,0,1-1-.5A9.2,9.2,0,0,0,54,82.6a17.9,17.9,0,0,1-2.2-3.4,8.2,8.2,0,0,1-.5-3c0-.8-1-1.1-1.8-1.3l-.6-.2c-.2-.2-1.2-.6-1.2-.8a1.5,1.5,0,0,1,.4-1V67.7a11.8,11.8,0,0,0-.4-2.5c0-.1,1.2-4.2,1.2-4.4s2.4-3.4,2.4-4.3a10.2,10.2,0,0,1,.6-2.5h0s-.2-1-.2-1.2,1.1-1.6,1.1-1.6a.3.3,0,0,0,.1-.2,5.1,5.1,0,0,1,.4-1.4L54.9,47v-.2a3.4,3.4,0,0,1,.5-1.7,14.1,14.1,0,0,0,1.8-3.7l.2-.7a5,5,0,0,0,.2-1.2v-.4l.8-1.7,2.2-.6a3.4,3.4,0,0,0,1.9-1c.7-.8,3-2.9,3.6-3a.9.9,0,0,1,.6.4,1.5,1.5,0,0,0,1.2.5,5.9,5.9,0,0,0,1.4-.6l1-.4h0v.2a.9.9,0,0,0,.6.6A6.9,6.9,0,0,1,73.3,36h0A12.8,12.8,0,0,1,71.7,39.6Z" transform="translate(-1 -1)"/><path class="cls-1" d="M73.4,78a8,8,0,0,1-5.1,1.6,9.8,9.8,0,0,1-6.2-2l-.4-.4c-1.4-1.3-2.3-3.6-2.5-6.6l2.9-.4h.2a13.7,13.7,0,0,0,5.3-2.4,11.9,11.9,0,0,0,4-5.3,11.1,11.1,0,0,0,.8-2.9l1.3.7A7.2,7.2,0,0,1,76.5,64h7.4a10.6,10.6,0,0,0-3.8-6.9,15.9,15.9,0,0,0-7.4-3,14.7,14.7,0,0,0-1.1-5A12.5,12.5,0,0,0,68,44.2a15.5,15.5,0,0,0-5.6-2.8h-.2a31.4,31.4,0,0,0-6.8-.5H41.3V70.8h9.9a14.1,14.1,0,0,0,4.7,9.8,17.3,17.3,0,0,0,6,3.2,21.3,21.3,0,0,0,6.3.8,18.4,18.4,0,0,0,9.9-2.4,11.2,11.2,0,0,0,5.4-9H76.3A7.7,7.7,0,0,1,73.4,78ZM63.9,61.2A7.3,7.3,0,0,1,62,64.1h-.1a9.5,9.5,0,0,1-2.5,1.1,8.2,8.2,0,0,1,2.2-4l.4-.4a7.7,7.7,0,0,1,2.5-1.4A6.3,6.3,0,0,1,63.9,61.2ZM51.6,65.8H48.8V46h3.4c3.1,0,5.1.1,6.1.2a9.1,9.1,0,0,1,3.5,1.3h.1a6.3,6.3,0,0,1,2,2.9,12.1,12.1,0,0,1,.7,3.6,23,23,0,0,0-2.8.6,18.4,18.4,0,0,0-5.9,3.1A14.6,14.6,0,0,0,51.6,65.8Z" transform="translate(-1 -1)"/><polygon class="cls-1" points="116.1 71.3 116.1 71.1 116.1 71.1 116.1 71.1 116.1 71.1 101.2 45.5 101.1 45.4 101.1 45.4 101.1 45.4 101.1 45.4 101.1 45.4 101.1 45.4 101 45.4 101 45.4 101 45.4 101 45.4 101 45.4 101 45.4 100.9 45.4 100.9 45.5 100.9 45.5 85.8 72.5 85.8 72.5 85.8 72.5 85.8 72.5 85.8 72.6 85.8 72.6 85.8 72.6 85.8 72.6 85.8 72.6 85.9 72.6 85.9 72.6 85.9 72.7 85.9 72.7 85.9 72.7 86 72.7 86 72.7 86 72.7 86 72.7 86 72.7 91.4 72.5 91 73.3 90.6 74.4 90.1 75.6 89.5 76.6 88.9 77.6 88.3 78.7 87.6 79.6 86.8 80.6 86.1 81.6 85.4 82.4 84.6 83.3 83.7 84.2 82.8 84.9 81.9 85.7 81 86.5 80 87.2 79.1 87.9 78.1 88.5 77 89.1 76 89.7 74.9 90.2 73.8 90.7 72.6 91.1 71.5 91.5 70.3 91.8 69.1 92.2 67.9 92.4 66.7 92.6 65.4 92.8 64.2 92.9 62.9 93 61.6 93 60 92.9 58.4 92.9 56.8 92.7 55.2 92.3 53.7 92 52.1 91.6 50.7 91.1 49.3 90.5 47.8 89.9 46.5 89.2 45.2 88.4 43.9 87.5 42.6 86.7 41.4 85.7 40.3 84.8 39.1 83.7 38 82.5 37 81.4 36.1 80.2 35.2 78.9 34.4 77.7 33.6 76.3 33 75 32.3 73.5 31.8 72.1 31.2 70.7 30.8 69.1 30.5 67.5 30.1 66 30 64.4 29.9 62.8 29.7 61.2 29.9 59.5 30 57.8 30.1 56.3 30.5 54.7 30.8 53.2 31.2 51.7 31.8 50.2 32.3 48.7 33 47.3 33.6 46 34.4 44.7 35.2 43.4 36.1 42 37 40.8 38 39.8 39.1 38.6 40.3 37.6 41.4 36.5 42.6 35.6 43.9 34.7 45.2 33.9 46.5 33.1 47.8 32.5 49.3 31.7 50.7 31.2 52.1 30.7 53.7 30.3 55.2 30 56.8 29.6 58.4 29.5 60 29.4 61.6 29.2 61.7 29.2 62.5 29.2 63.4 29.4 64.2 29.4 65.1 29.5 65.9 29.6 66.7 29.7 67.6 29.8 68.4 30 69.2 30.2 70.1 30.4 70.8 30.6 71.6 30.9 72.4 31.2 73.2 31.4 73.9 31.7 74.6 32 75.4 32.3 76.2 32.7 76.9 33.2 77.6 33.5 78.2 33.9 78.9 34.4 79.7 34.9 80.3 35.2 81 35.8 81.6 36.3 82.2 36.8 82.8 37.3 83.4 37.9 84 38.5 84.6 38.9 85.1 39.5 85.1 39.5 85.2 39.5 85.2 39.7 85.2 39.7 85.2 39.7 85.2 39.7 85.3 39.7 85.3 39.7 105.2 39.7 105.2 39.7 105.2 39.7 105.2 39.7 105.3 39.7 105.3 39.5 105.3 39.5 105.3 39.5 105.3 39.5 105.3 39.5 105.3 39.5 105.3 39.4 105.3 39.4 105.3 39.4 105.3 39.4 104.6 37.9 103.7 36.4 102.8 35 101.9 33.7 101 32.2 99.9 30.9 98.9 29.6 97.7 28.4 96.7 27.2 95.5 26 94.3 24.9 93 23.8 91.8 22.8 90.4 21.7 89 20.7 87.7 19.9 86.2 18.9 84.8 18.2 83.3 17.4 81.8 16.7 80.3 15.9 78.7 15.3 77 14.9 75.5 14.3 73.8 13.9 72.1 13.4 70.4 13.2 68.6 12.8 67 12.6 65.2 12.5 63.5 12.4 61.6 12.4 61.6 12.4 61.6 12.4 61.6 12.4 59.1 12.5 56.7 12.6 54.2 13 51.9 13.3 49.5 13.9 47.1 14.5 44.8 15.3 42.7 16.2 40.5 17.1 38.4 18.2 36.3 19.4 34.4 20.7 32.5 22.1 30.6 23.5 28.9 25 27.1 26.6 25.6 28.3 24 30.1 22.6 32 21.2 33.9 19.9 35.8 18.7 37.9 17.6 40 16.7 42.2 15.9 44.3 15 46.6 14.4 49 13.8 51.3 13.5 53.7 13.1 56.2 12.9 58.7 12.9 61.2 12.9 61.2 12.9 61.2 12.9 61.2 12.9 63.7 13.1 66.1 13.5 68.6 13.8 71 14.4 73.4 15 75.7 15.9 78 16.7 80.1 17.6 82.3 18.7 84.4 19.9 86.5 21.2 88.5 22.6 90.4 24 92.2 25.6 94 27.1 95.7 28.9 97.4 30.6 98.8 32.5 100.2 34.4 101.7 36.3 102.9 38.4 104.1 40.5 105.1 42.7 106.1 44.8 107.1 47.1 107.8 49.5 108.4 51.9 109 54.2 109.4 56.7 109.7 59.1 109.9 61.6 109.9 61.7 109.9 61.7 109.9 61.7 109.9 61.7 109.9 63.9 109.9 66 109.8 68.2 109.6 70.2 109.2 72.2 108.8 74.3 108.2 76.3 107.7 78.2 107.1 80.3 106.3 82.1 105.5 84 104.5 85.8 103.6 87.4 102.5 89.2 101.4 90.8 100.2 92.5 99 94 97.7 95.5 96.3 96.9 94.8 98.3 93.4 99.5 91.8 100.9 90.2 102.1 88.5 103.1 86.8 104.2 85 105.2 83.2 106 81.4 106.8 79.5 107.6 77.6 108.3 75.7 108.9 73.7 109.2 71.7 115.9 71.4 115.9 71.4 115.9 71.4 116.1 71.4 116.1 71.4 116.1 71.4 116.1 71.4 116.1 71.4 116.1 71.4 116.1 71.3 116.1 71.3"/><path class="cls-3" d="M23.6,73.6a2.7,2.7,0,0,1-1.6-.4,2.1,2.1,0,0,1-.8-1.2,3,3,0,0,1,.1-1.3,2.6,2.6,0,0,1,.8-1.1,2.8,2.8,0,0,1,1.6-.6h1.4a1.8,1.8,0,0,1,1.2.5,2.1,2.1,0,0,1,.7,1.3,2.4,2.4,0,0,1,0,1.2c-.1.4-.5.7-1,1l.5.8c.6-.4,1.1-.8,1.2-1.4a2.5,2.5,0,0,0,.1-1.9,5.3,5.3,0,0,0-.8-1.7,3,3,0,0,0-1.6-.8h-2a4.9,4.9,0,0,0-1.8.8,2.1,2.1,0,0,0-1.1,1.4,3.1,3.1,0,0,0,0,1.9,3.4,3.4,0,0,0,1.1,1.8,3.2,3.2,0,0,0,2,.6Z" transform="translate(-1 -1)"/><path class="cls-3" d="M24.6,79.2a1.6,1.6,0,0,1-1-.2,1.4,1.4,0,0,1-.6-.7,2.4,2.4,0,0,1,0-1.2c.1-.4.5-.7,1.1-1l1.4,3.7H26a2.4,2.4,0,0,0,1.6-1.3,3.1,3.1,0,0,0,0-1.9,2.3,2.3,0,0,0-1.3-1.4h-.4a3.2,3.2,0,0,0-1.9.2,4.8,4.8,0,0,0-1.7,1.3,1.8,1.8,0,0,0,0,2,2,2,0,0,0,1,1.2,2.5,2.5,0,0,0,1.3.3ZM26,76h.2a1.1,1.1,0,0,1,.7.8,1.7,1.7,0,0,1-.1,1.2,1.3,1.3,0,0,1-.8.6h0L24.9,76A1.1,1.1,0,0,1,26,76Z" transform="translate(-1 -1)"/><path class="cls-3" d="M29.5,83.9a1.5,1.5,0,0,0,.5-.6,1.7,1.7,0,0,0,.1-.7,1.9,1.9,0,0,0-.3-.9c-.4-.6-.8-1.1-1.6-1.1l.6-.4-.4-.7L23.7,82l.5.8,2.5-1.3a1.3,1.3,0,0,1,1.4-.2,1,1,0,0,1,.7.7c.1.2.2.5.1.6a.7.7,0,0,1-.2.6,2.1,2.1,0,0,1-.7.5l-2.9,1.4.4.8,2.9-1.4Z" transform="translate(-1 -1)"/><path class="cls-3" d="M28.6,87.1l2.6-1.7.5.8.6-.4-.5-.7,1.6-1-1-.5-1.1.7-.3-.4-.6.4.4.6-2.6,1.6-.8.6c-.1.1-.1.4-.1.6a1,1,0,0,0,.4.7c.1.1.2.4.4.5l.6-.5a.5.5,0,0,1-.2-.4v-.4C28.2,87.3,28.3,87.2,28.6,87.1Z" transform="translate(-1 -1)"/><path class="cls-3" d="M31.9,91.3a1.7,1.7,0,0,1-1,.1,1,1,0,0,1-.7-.5,1.4,1.4,0,0,1-.4-1.2c0-.4.4-.8.7-1.2l1.8,2.3.6.8h.2a3.8,3.8,0,0,0,1.2-1.8,2.1,2.1,0,0,0-.6-1.8,2.8,2.8,0,0,0-1.4-1h-.2a3.5,3.5,0,0,0-2,.7A3.2,3.2,0,0,0,29,89.4a2.4,2.4,0,0,0,.6,1.9,4.1,4.1,0,0,0,1.3,1,3.2,3.2,0,0,0,1.4-.1Zm.5-3.5h0a1.3,1.3,0,0,1,1,.6,2.5,2.5,0,0,1,.4,1.2,1.8,1.8,0,0,1-.6,1l-.6-.7-1.2-1.6A.9.9,0,0,1,32.4,87.8Z" transform="translate(-1 -1)"/><path class="cls-3" d="M36.2,92l.5.2a2.1,2.1,0,0,0,.4.6l.8-.4a1,1,0,0,0-.4-.8c-.1-.2-.4-.2-.6-.4h-1l.6-.5-.5-.5-3.7,3.8.6.6,1.9-2,.8-.6Z" transform="translate(-1 -1)"/><path class="cls-3" d="M39.5,93.3c-.2-.1-.4-.4-.6-.4H37.7a.7.7,0,0,0-.5.4c-.1.2-.4.5-.2.7a.9.9,0,0,0,.1.7l.8,1.2c.4.5.5.7.5.8a.6.6,0,0,1,0,.6c-.1.2-.4.2-.6.2a1.9,1.9,0,0,1-1-.4,2.4,2.4,0,0,1-.6-.8,2.2,2.2,0,0,1,.1-.8l-.8-.5a1.8,1.8,0,0,0-.2,1.4c.1.5.4.8,1,1.3l1,.5h1a1,1,0,0,0,.7-.5,1.3,1.3,0,0,0,.4-.7,1,1,0,0,0-.2-.7l-.7-1.1-.5-.6a1.1,1.1,0,0,1-.1-.5.8.8,0,0,1,.1-.4l.5-.2a1.2,1.2,0,0,1,.8.4.8.8,0,0,1,.5.7,1.7,1.7,0,0,1-.1.7l.7.5a4.5,4.5,0,0,0,.2-.8,1,1,0,0,0-.4-.8Z" transform="translate(-1 -1)"/><path class="cls-3" d="M45.8,97.4l-1-.5.2-.5c.1-.4.2-.5.4-.5H46c.1.1.4.1.5.4l.5-.6-.7-.5-.8-.2-.7.2a6.1,6.1,0,0,1-.4.6l-.2.5-.7-.4-.4.6.7.4-2,4.1.8.4,2-4.1,1,.5Z" transform="translate(-1 -1)"/><path class="cls-3" d="M48.2,98.1l-1-.2h-.8a2.9,2.9,0,0,0-1.6,1.8,2.2,2.2,0,0,0,0,2.2,2,2,0,0,0,1.4,1.3h1.4a4.5,4.5,0,0,0,1.2-.6,3.2,3.2,0,0,0,.8-1.4,4.1,4.1,0,0,0,0-2.2A2.7,2.7,0,0,0,48.2,98.1Zm.5,3.1a2.3,2.3,0,0,1-1,1.3l-.5.2h-.7a1.1,1.1,0,0,1-.8-.8,2.2,2.2,0,0,1,.1-1.6,1.9,1.9,0,0,1,1-1.3h1.3a1.3,1.3,0,0,1,.8.8A4.1,4.1,0,0,1,48.7,101.2Z" transform="translate(-1 -1)"/><path class="cls-3" d="M52.4,99.6c-.2,0-.5.4-.7.6v-.8l-.8-.2-1.2,5.1.8.2.6-2.6a3,3,0,0,1,.4-1c.1-.2.2-.4.5-.4h.6l.6.4.5-.7-.8-.5Z" transform="translate(-1 -1)"/><path class="cls-3" d="M61.6,99.2a2.3,2.3,0,0,0-1.1-.6H56.7l-.4,7.3h3.8l.8-.2.7-.6a2.3,2.3,0,0,0,.5-1.1,7.4,7.4,0,0,1,.4-1.4,4.7,4.7,0,0,0-.2-1.7A2.4,2.4,0,0,0,61.6,99.2Zm0,3a4.6,4.6,0,0,1-.2,1.4c-.1.4-.4.6-.6,1l-.7.4H57.3l.4-5.6h1.8l1,.2c.4.1.6.5.8,1S61.6,101.5,61.6,102.2Z" transform="translate(-1 -1)"/><polygon class="cls-3" points="63.4 97.5 62.5 97.6 62.5 98.6 63.4 98.6 63.4 97.5"/><polygon class="cls-3" points="62.5 99.5 62.8 104.9 63.6 104.8 63.5 99.5 62.5 99.5"/><path class="cls-3" d="M69.5,103c-.1-.1-.4-.4-.6-.4l-1.3-.2h-.8l-.4-.2c-.1-.1-.1-.1-.1-.4a.8.8,0,0,1,.2-.5,1,1,0,0,1,.8-.4h.8a1.5,1.5,0,0,1,.5.6l.8-.2a1.5,1.5,0,0,0-.4-.8l-.8-.2H67.1a1,1,0,0,0-.7.2c-.2.1-.5.2-.6.4s-.4.4-.4.6a1.3,1.3,0,0,0-.1.6.9.9,0,0,0,.4.7,1.5,1.5,0,0,0,.6.5l1.4.2,1,.2c.2.1.4.2.4.5a.7.7,0,0,1-.2.6,1,1,0,0,1-.8.4,1.8,1.8,0,0,1-1-.2,1.3,1.3,0,0,1-.5-.7l-.8.2a1.5,1.5,0,0,0,.8,1.2,2.1,2.1,0,0,0,1.6.2,1.7,1.7,0,0,0,1.1-.4,1,1,0,0,0,.7-.7c.1-.4.2-.6.1-.8S69.8,103.3,69.5,103Z" transform="translate(-1 -1)"/><path class="cls-3" d="M74.3,103.4l-.8.5h-.7l-.5-.2a1.9,1.9,0,0,1-.8-1.1l1.3-.4,2.5-.7v-.2A2.9,2.9,0,0,0,74,99.5a2.8,2.8,0,0,0-1.3-.4h-.6a2.8,2.8,0,0,0-1.6,1.2,3.2,3.2,0,0,0-.1,2.2,2.9,2.9,0,0,0,1.2,1.8c.4.2.6.4,1,.4h1a2.6,2.6,0,0,0,1.3-.8,1.7,1.7,0,0,0,.5-1.4h-1C74.6,102.9,74.4,103.1,74.3,103.4Zm-3-1.6a2.4,2.4,0,0,1,.1-1.2,1,1,0,0,1,1-.6h.4a.8.8,0,0,1,.8.4,1.8,1.8,0,0,1,.6.8l-1.4.2Z" transform="translate(-1 -1)"/><path class="cls-3" d="M81.1,100.9a8.3,8.3,0,0,1-.7-1.4l-.5-1.1c-.1-.4-.2-.6-.4-.7a.9.9,0,0,0-.5-.4h-.8a2.4,2.4,0,0,0-1.1.4,3.3,3.3,0,0,0-1,.6,2.2,2.2,0,0,0-.5.8,3.3,3.3,0,0,0,0,1l.8-.2a3.4,3.4,0,0,1,.1-1,1.7,1.7,0,0,1,1.8-.7h.1l.5.6v.2l-.6.4-.7.6-.7.5-.5.5a2.1,2.1,0,0,0-.2.6,1.7,1.7,0,0,0,.1.7,1.3,1.3,0,0,0,.8.7h1.6a1.7,1.7,0,0,0,.8-.6,4.4,4.4,0,0,0,.6-1,.8.8,0,0,0,.5.5l.8-.4Zm-1.5.6c-.1.4-.4.5-.7.6h-.8c-.2-.1-.5-.2-.5-.5s-.1-.2-.1-.4a.8.8,0,0,1,.2-.5,2.2,2.2,0,0,0,.6-.5l.4-.2a8.1,8.1,0,0,0,.8-.6v.2a4.5,4.5,0,0,1,.2.8A2.9,2.9,0,0,1,79.6,101.5Z" transform="translate(-1 -1)"/><path class="cls-3" d="M84.9,96.6h-.7l-1.3.4-.8.2h-.4l-.2-.2a.9.9,0,0,1,.5-1.3l.8-.2a.6.6,0,0,1,.6.4l.7-.6-.7-.5h-.8a1.4,1.4,0,0,0-1,.5l-.6.5c-.2.2-.2.4-.4.6s-.1.5-.1.6a1.1,1.1,0,0,0,.2.6,1.5,1.5,0,0,0,.6.5H82l1.3-.4,1-.2.5.2a1.3,1.3,0,0,1,.1.6c-.1.4-.2.5-.6.7s-.6.4-1,.4a.9.9,0,0,1-.8-.5l-.7.6a1.9,1.9,0,0,0,1.3.7,2.7,2.7,0,0,0,1.6-.5,2.9,2.9,0,0,0,.8-.7c.2-.4.4-.6.4-1a1.5,1.5,0,0,0-.2-.8Z" transform="translate(-1 -1)"/><path class="cls-3" d="M88.9,93.8a1.8,1.8,0,0,1,.1,1,.9.9,0,0,1-.5.7,1.4,1.4,0,0,1-1.2.4,1.2,1.2,0,0,1-.8-.4l-.5-.4.5-.4L89,92.5h-.1a2.6,2.6,0,0,0-1.8-1.1h-.5a1.6,1.6,0,0,0-1.3.6,2.2,2.2,0,0,0-.8,1.8,4.2,4.2,0,0,0,.8,2,5.3,5.3,0,0,0,1.2,1h.6a2.7,2.7,0,0,0,1.9-.7,3.1,3.1,0,0,0,.8-1.3,2.2,2.2,0,0,0-.2-1.4Zm-3.4-.2a1.4,1.4,0,0,1,.5-1.1,1.2,1.2,0,0,1,.8-.4h.4a2.3,2.3,0,0,1,1,.5l-1.3,1.2-.8.8A1.1,1.1,0,0,1,85.5,93.6Z" transform="translate(-1 -1)"/><path class="cls-3" d="M95.6,84.9l-.8.6a2.4,2.4,0,0,1,.6,1.4,1.9,1.9,0,0,1-.5,1.4,1.4,1.4,0,0,1-1,.7,1.5,1.5,0,0,1-1.3,0,3.7,3.7,0,0,1-1.4-.7,5.2,5.2,0,0,1-1-1.1,1.9,1.9,0,0,1-.3-1.2,1.6,1.6,0,0,1,.6-1.3c.4-.4.6-.7,1-.8a2.3,2.3,0,0,1,1.4.1l.4-.8a4.1,4.1,0,0,0-1.9-.1,3.6,3.6,0,0,0-1.6,1.1,4.5,4.5,0,0,0-.7,1.8,3,3,0,0,0,.4,1.8,3.8,3.8,0,0,0,1.3,1.6,3.7,3.7,0,0,0,1.8.8,2.8,2.8,0,0,0,1.8-.1A3,3,0,0,0,96,88.9a2.3,2.3,0,0,0,.6-1.9A3.8,3.8,0,0,0,95.6,84.9Z" transform="translate(-1 -1)"/><path class="cls-3" d="M98.1,79.8l-1.2-.5h-.8a2.7,2.7,0,0,0-1.6,1.2,2.3,2.3,0,0,0-.4,1.8,2.7,2.7,0,0,0,1.4,1.8l1.3.5h.8a2.3,2.3,0,0,0,1.6-1.2,2.8,2.8,0,0,0,.4-1.2,1.7,1.7,0,0,0-.4-1.2C99.1,80.5,98.7,80.2,98.1,79.8Zm.6,3.2a1.4,1.4,0,0,1-1,.7H97l-.8-.4c-.6-.4-1-.7-1.1-1.2a1.2,1.2,0,0,1,.2-1.1,1.4,1.4,0,0,1,1-.7h.8a.9.9,0,0,1,.7.4c.6.4,1,.7,1.1,1.2A1.1,1.1,0,0,1,98.7,83Z" transform="translate(-1 -1)"/><path class="cls-3" d="M99.1,74.5h-.7a.7.7,0,0,0-.6.4l-.6.7a1.9,1.9,0,0,0,.1,1.9l-.6-.4-.4.7,4.7,2.3.4-.8-2.6-1.2c-.6-.4-1-.6-1.1-1a2.1,2.1,0,0,1,.1-1.1,1,1,0,0,1,.4-.5l.6-.2.8.2,2.9,1.4.4-.8L100,74.8A1.2,1.2,0,0,1,99.1,74.5Z" transform="translate(-1 -1)"/><path class="cls-3" d="M103.3,73.3v.2h-.7l-2.9-1.2.4-.8-.6-.2-.4.8-1.7-.7v1l1.2.5-.2.6.6.2.2-.6,2.9,1.2,1,.4h.5a1.3,1.3,0,0,0,.5-.7c.1-.1.1-.4.2-.6l-.8-.2C103.3,73.1,103.3,73.2,103.3,73.3Z" transform="translate(-1 -1)"/><path class="cls-3" d="M101.1,70.3a.9.9,0,0,1-.4-.5c0-.2-.1-.4,0-.6a1.3,1.3,0,0,1,.5-.6l-.7-.6a1.3,1.3,0,0,0-.6.7c0,.2-.1.4,0,.6a1,1,0,0,0,.5.7l-.7-.2-.4.7,5,1.8.4-.8-2.6-1C101.7,70.7,101.4,70.5,101.1,70.3Z" transform="translate(-1 -1)"/><path class="cls-3" d="M105.7,65.1a9.1,9.1,0,0,0-1.4-.7h-.6a2.1,2.1,0,0,0-1.4.2,2.5,2.5,0,0,0-1.2,1.6,2.8,2.8,0,0,0,.1,1.8c.2.7,1,1.1,1.8,1.4h.7a2.2,2.2,0,0,0,1.4-.2,2.5,2.5,0,0,0,1.2-1.6,2.9,2.9,0,0,0,.1-1.3A2.2,2.2,0,0,0,105.7,65.1Zm-.1,2.1a1.9,1.9,0,0,1-.8,1h-1.6a2.6,2.6,0,0,1-1.3-.8,1,1,0,0,1-.1-1.2,1.9,1.9,0,0,1,.8-1h1.6a2.6,2.6,0,0,1,1.3.8A2.6,2.6,0,0,1,105.6,67.2Z" transform="translate(-1 -1)"/><polygon class="cls-3" points="99.2 60.6 98.9 61.4 106.1 63.1 106.2 62.2 99.2 60.6"/><polygon class="cls-3" points="18.7 58 18.7 55.7 18.2 55.7 17.9 55.7 17.8 58 18.2 58 18.7 58"/><polygon class="cls-3" points="21.7 41.9 22.6 40.5 22.8 39.9 22.6 39.9 22 39.5 21.7 40.1 20.6 42.3 21.4 42.6 21.7 41.9"/><path class="cls-3" d="M25.6,38.7l-.7,1.4h-.1l.7.4.5.3.7.4h.1l.8-1.6.2-.4.7-1.4.4-.6h-.2l-.7-.4h-.2l-.8-.4h-.1l-.7,1.4Zm1.5-1.4h0l.6.2h.2l-.2.4-1.2,2.3h0l-.5-.2h-.4l.4-.6Z" transform="translate(-1 -1)"/><path class="cls-3" d="M85,27.8l-1.8-1.1.5-.7,2.2,1.2.5-.7-.5-.2-1.7-1,.6-1,1.1.6,1,.6.4-.6v-.2h-.1l-1.2-.7-.7-.2.6-.8-.7-.5-.6.8-1-.5c.1-.1.4-.2.5-.4l-.6-.6a4.3,4.3,0,0,1-2.2,1.2l.5.8a2.7,2.7,0,0,0,1.1-.5l1,.8-.7.8-2.2-1.3-.5.7,2.2,1.3-.5.7-1.8-1.1c-.1-.1-.2,0-.4.1l-1.1,2-1,1.4.7.5v-.2l1.6-2.5h.1l1.2.7-2,3.2.7.5,2-3.2,1.2.7h0l-1.1,1.8a.6.6,0,0,1-.5.2.8.8,0,0,1-.6-.5l-.4.9a2.1,2.1,0,0,0,1.3.7.8.8,0,0,0,.8-.5l1.7-2.6C85.1,28.1,85.1,28,85,27.8Z" transform="translate(-1 -1)"/><polygon class="cls-3" points="23 39.4 23.9 37.9 24.6 36.4 25.1 35.5 25.4 34.7 25.1 34.6 24.7 34.4 24.6 34.5 23.9 36.1 22.6 38.5 22.2 39.1 22.6 39.2 23 39.4"/><path class="cls-3" d="M19.2,64.4l-.7-.2-.2.8a1.4,1.4,0,0,1,1,.4l.5.2,1,.6.4-.7a3.2,3.2,0,0,0-1.4-.8Z" transform="translate(-1 -1)"/><path class="cls-3" d="M98.7,33.3l-1.9-1.8-1.9-1.8-1.2-1.2-.6-.5-.6-.5h-.1L91,29s-.1.1,0,.1L93.2,31l.5.5-.6.5h0l-2-1.9-.6.6,2.2,1.9-.5.5-1.8-1.6-1.1-1-.6.6,1.7,1.6.7.7-.7-.4A21,21,0,0,1,88,31.5l-.4.7a14.8,14.8,0,0,0,1.3.8L87,35h0l.5.5.4-.4,2.5,2.4,1.2,1.1-.4.4.6.6L93,38.6l.6-.6.6-.6c.1-.1.1-.2,0-.4l-.6-.6-.6-.5-1.9-1.7h.1l1.3.5.4.4.6.6,1.2,1.2.6.6.6-.6-1.2-1.1-.5-.5h.5l1.7.4V35l-1.6-.2.4-.4-.6-.6-1.1-1,.5-.5.6.6,1.9,1.8.4.4h.1l1.4-1.4C98.9,33.5,98.9,33.5,98.7,33.3ZM92,38.5l-1.7-1.6-2-1.9.4-.4,1.7,1.6,2.2,1.9Zm1.1-1.7.2.2h0l-.2.2v.2l-2.6-2.4L89.2,34l.4-.4h.1l.7.7Zm1.5-2.4-.8-.2h-.6l-.4-.2.2-.2h.1l.4.4Zm-.9-4.3-.4.4-.2-.2-1.1-1h0l.5-.5h0l.5.5.6.5v.3Zm1.6,2.2-.4-.4-1-1,.6-.6.4.4,1,.8Zm2.4,1.2-.5.5h0l-.4-.4-.8-.9.6-.6.4.4.7,1Z" transform="translate(-1 -1)"/><path class="cls-3" d="M27.7,64.6h-5c-.4-.1-.7-.4-1.2-.5l-.2.9a5.9,5.9,0,0,1,1.4.6l.8.6h.1l.5-.7v-.2h4.1v-.8h-.4Z" transform="translate(-1 -1)"/><polygon class="cls-3" points="25.1 41.4 24.8 41.9 25.1 41.9 26.7 42.6 27 42.8 27.7 43 28.2 43.2 28.3 43.2 28.5 42.6 28.2 42.4 27.7 42.3 27 41.9 26.7 41.9 25.2 41.2 25.1 41.4"/><path class="cls-3" d="M48.6,22.7h0l.7-.4-.7-1.8a1,1,0,0,0-.4-.5h-.1l-.6.2a10.9,10.9,0,0,1,.6,1.1C48.2,21.9,48.5,22.2,48.6,22.7Z" transform="translate(-1 -1)"/><path class="cls-3" d="M58.8,18.6c.1.5.2,1.1.4,1.9H60a11.5,11.5,0,0,0-.6-2.5h-.7c0,.1.1.2.1.4Z" transform="translate(-1 -1)"/><path class="cls-3" d="M72,18.9l.8.2h0a4.1,4.1,0,0,0,.1,1h.8v-.7l1.3.4.2-.7L73,18.4h0l-.6-.6a7.3,7.3,0,0,1-1.8,1.4c.1.1.2.5.4.7A9,9,0,0,1,72,18.9Z" transform="translate(-1 -1)"/><polygon class="cls-3" points="84.8 27.2 83.4 29.4 84.2 29.8 84.8 28.9 86 27 87.7 24.3 87 23.8 86 25.3 84.8 27.2"/><path class="cls-3" d="M78,23.8l.6.5c.1-.2.4-.4.4-.6a4.7,4.7,0,0,0,.5-1l-.5-.4h-.1l-3.6-1v-.6a.3.3,0,0,1,.1.2l.8-.6h0l.7.2c0,.4.1.7.1,1.1h.8a1.7,1.7,0,0,0-.1-.8l1,.2.7.2.2-.7-.7-.4-2-.6.2-.4-.7-.5a4.4,4.4,0,0,1-1.3,1.4c.1,0,.1.1.2.2h-.7l-.2.7-1.7-.5-2.3-.6h-.2l-.5,1.8.8.2.4-1.2h.1l1.8.5,5.5,1.6a.1.1,0,0,1,.1.1A1.9,1.9,0,0,1,78,23.8Z" transform="translate(-1 -1)"/><path class="cls-3" d="M39.5,27l.5-.4h.2l-.2-.2-.7-.7-.4-.4-.6.5,1,1C39.2,26.8,39.4,26.9,39.5,27Z" transform="translate(-1 -1)"/><path class="cls-3" d="M39.1,28.3l.7-.4,2-1h.1l1.6-.7-.4-.7L42,26h0a1.7,1.7,0,0,0-.1-.8,4.3,4.3,0,0,0-.2-1.1h-.8l.4,2.3-1.4.7-.9.4-.7.4.6.5Z" transform="translate(-1 -1)"/><polygon class="cls-3" points="36.6 24.4 38.1 23.7 38.8 23.4 40.9 22.4 41 22.3 40.9 22.3 40.6 21.7 38.8 22.5 38.7 22.5 38.5 21.8 38.1 21.9 37.6 22.3 38 22.9 36.2 23.7 36.6 24.4"/><path class="cls-3" d="M50.1,20.3h0l3.8-1,3-.6v-.8l-2.8.6h-.6v-.7l-.8.2v.7l-3.2.7c-.1,0-.2.1-.2.4l.7,3.4-1.3,1.4h.1l.6.5,1-1a4.3,4.3,0,0,1,0,1.6,10.1,10.1,0,0,1-.8,2.2l.8.2a5.2,5.2,0,0,0,.8-4.5Z" transform="translate(-1 -1)"/><path class="cls-3" d="M30.5,37.5l-.5-.2c-.1-.1-.4,0-.4.1l-.5.8-.5,1L28,40.7l-.3.3-.4.7c-.1.1,0,.2.1.4h.4l.7.4.5.2,1.3.6,1.1.5.2-.6h-.2l.2-.6,1.6-2.9.4.2.4-.7-2.3-1.1Zm-.5.9h.3l.6.4-.6,1.2v.2l-1-.5Zm-.7,3.8h-.1l-.5-.2h-.2c-.1,0-.1-.1,0-.1l.2-.6.4-.7h.1l.8.4Zm1.6.7h-.4l-.5-.2.5-.8.2-.5.8.4Zm1.8-3.3L32,40.9h0l-.7-.4.7-1.3h0Z" transform="translate(-1 -1)"/><path class="cls-3" d="M33,33.6h1.2l1.1.2v-.8H34.2l-2-.2h0l1.6-1.4-.6-.6L31.9,32h-.3l-1.1-1h0a9.2,9.2,0,0,0,1.2-1.6l-.7-.5-.6.7-1.3,1.6-.5.6-.7.7h0l.7.5h0l.5-.5a6,6,0,0,1,.8-.8l.5.5.5.5-.4.5-1.2,1.1.6.6.5-.5,1-.8a12.1,12.1,0,0,1,.5,1.4,10.9,10.9,0,0,1,.4,2.5l1-.2a8.8,8.8,0,0,0-.6-2.8l1.8,1.8,1.4,1.6.6-.6L34.2,35Z" transform="translate(-1 -1)"/><path class="cls-3" d="M77.7,22.9,73,21.6l-1.3-.4h-.4l-1.4,4.8c0,.2,0,.4.2.4l2.9.7,3.5,1c.2,0,.4,0,.4-.2l.6-1.9c0-.2,0-.4-.2-.4L73,24.9l-1.6-.5v-.6l1.4.4L77,25.3h.4l.6-1.8Zm-4.8,2.8,3.4.8s.1,0,0,.1v.6l-.2.2-3.1-.8L71,26s-.1,0,0-.1l.2-.7Zm3.7-1.5h-.1l-3.6-1-1.2-.4.2-.7a.1.1,0,0,1,.1-.1l.8.2,3.7,1.1c.1,0,.1,0,.1.1Z" transform="translate(-1 -1)"/><path class="cls-3" d="M48.1,25.6c-.1-.1-.2-.4-.4-.5A8.3,8.3,0,0,0,46,24c-.1,0-.1-.1-.1-.2l-.5-3.1h-.7l-2.6,1.3h-.2v.2L46,30l.8-.4-3.7-7.2h0l1.6-.7h0l.5,2.8a.1.1,0,0,0,.1.1,7.3,7.3,0,0,1,2.2,1.6c.4.6.5,1.1.1,1.3s-.6.2-1.3.2l.4,1a2.7,2.7,0,0,0,1.6-.4l.2-.2.2-.4c0-.1.1-.2.1-.4a1.7,1.7,0,0,0-.1-.7Z" transform="translate(-1 -1)"/><polygon class="cls-3" points="31.9 27 31.2 27.6 33.3 29.8 36 32.5 36.6 31.9 33.3 28.5 31.9 27"/><path class="cls-3" d="M43.4,27l-1.4.6h-.1l-2,1h-.4c-.1,0-.1.1,0,.1l.4.8,1.3,2.5.7-.4h0l-.2-.4H42l2.4-1.2.2.4.7-.4L43.6,27Zm-1.3,3.7h0l-.7.4-.8-1.6h0l1.3-.6H42l1.1-.5h.1l.8,1.6Z" transform="translate(-1 -1)"/><path class="cls-3" d="M39.8,32.2l-.7-.7-4.8-4.9h-.1l-.6.5.8.8,4.8,4.9h0a.3.3,0,0,1,.1.2,1,1,0,0,1-.1.4l-1.4,1,.6.7c.4-.1.6-.4.8-.5a1.4,1.4,0,0,0,.7-.6l.4-.6a1.1,1.1,0,0,0-.5-1.1Z" transform="translate(-1 -1)"/><path class="cls-3" d="M90.4,26l.2-.2h-.2l-.6-.4L87,29.9l-1.2,1.9-.4.5a.2.2,0,0,1-.2.2.9.9,0,0,1-.6-.4l-.5-.5-.5.7a2.9,2.9,0,0,0,1.6,1l.6-.2.4-.4,1-1.4Z" transform="translate(-1 -1)"/><path class="cls-3" d="M23.7,59.2H21.6v4.4h2.1v-2h.6V64h.9v-.4H26v.6h.7V61.7h1.2v-.8H26.7V59H26v1.9h-.8V59.1h-.8v1.8h-.6V59.3C23.9,59.2,23.8,59.2,23.7,59.2ZM23,63h-.4V60H23Zm2.2-1.3H26v1.1h-.8Z" transform="translate(-1 -1)"/><path class="cls-3" d="M28,57.5h-.2c-.1-.2-.4-.2-.6-.2H22v-.5H21v2.4h-.7v.5H19.1c-.1,0-.2,0-.2.2v1.9h-.4l-.2.8h.6v1.2h.9V62.7h.6v1.6h.8V59.1h.8V58h5.5c.1.1.1.2,0,.6l-.2.6h.8a3.4,3.4,0,0,0,.1-1.7Zm-7.7,4.3h-.6V60.3h.6Z" transform="translate(-1 -1)"/><path class="cls-3" d="M28.9,47.5l-.2,1.3-.6,2.5h-.3l-1.7-.4h-.5l.5-2,.2-1.2h-.8l-.6,2.8v.5l-1.2-.2H22.4l.4-1.7.5-1.9h-.9L21.5,50l-1.8-.5-.2,1h.2l1.6.4L20.8,53l-1.1-.5h-.4v.4l-.2.4h.2l.5.2a3.1,3.1,0,0,1,1.2.7,8.3,8.3,0,0,1,1.3,1.4l.4-.4H23c-.1-.1-.2-.4-.4-.5l-1.2-1.1.6-2.5h1.4l1,.2-.7,3.1.8.2v-.7l.6-2.5h.7l1.7.4h.1v.7l-.7,3.6.8.2h.1L28,56l.7-3.2.5-2.2.7-3h-1Z" transform="translate(-1 -1)"/><path class="cls-3" d="M67.9,20.4H65.3v-.7h2.9v-.8H61.6v.8h2.8v.7H61.9a.4.4,0,0,0-.4.4v5.3h.8V21.5h1.9a3.8,3.8,0,0,1-1.7,2.9l.6.6a4.3,4.3,0,0,0,1.6-2l1.7,1.9.6-.6-2-2.2a1.3,1.3,0,0,1,.1-.6h2.2V25c0,.1,0,.4-.2.4h-.4l-1.2-.2v1a4,4,0,0,0,2.3-.1,1.2,1.2,0,0,0,.4-.8V21.1C68.2,20.4,68.1,20.4,67.9,20.4Z" transform="translate(-1 -1)"/><path class="cls-3" d="M26.1,45.6c.6.4,1.2.6,1.7,1H28l.6.4v-.2l.4-.5-.4-.2-.7-.5h-.2c-.5-.4-1.1-.6-1.7-1l-.5-.2-.4-.2-.5.7.7.4A.8.8,0,0,1,26.1,45.6Z" transform="translate(-1 -1)"/><path class="cls-3" d="M61,18.3h7.1v-.8H64.6v-.7h-1v.7H60.1a.2.2,0,0,0-.2.2v3.5l-1.4,1.1h0l.4.6,1-.7a4.4,4.4,0,0,1-.2,1.3,6.2,6.2,0,0,1-1.2,2l.7.4a5.9,5.9,0,0,0,1.4-4.4V18.4C61,18.4,61,18.3,61,18.3Z" transform="translate(-1 -1)"/><polygon class="cls-3" points="28.2 43.8 27.7 43.6 27 43.2 26.7 43.1 25.1 42.4 24.6 42 24 41.8 24.6 40.7 24.7 40.6 24.6 40.5 23.9 40.1 23.9 40.4 22.6 42.9 22.3 43.4 22.6 43.5 23 43.7 23.6 42.6 23.9 42.6 24.6 43 25.1 43.2 26.7 44.1 27 44.2 27.7 44.6 28.2 44.8 29.5 45.4 29.5 45.4 29.9 44.7 29.5 44.4 28.2 43.8"/><path class="cls-3" d="M58.8,25.7h0a5.2,5.2,0,0,1-3.6-2.2l2.9-.6-.2-.8-3,.6h0L54.4,21l2.8-.6-.2-.8-3.1.7-1.7.4V20h-.8v1.4a3.1,3.1,0,0,1-.5,1.2l.8.4a4.6,4.6,0,0,0,.5-1.4h0l1.4-.4.2,1.2v.4h-.1l-2.6.6.2.8,2.5-.6H54c0,.2-.1.5-.1.7a3.1,3.1,0,0,1-1,1.6,11,11,0,0,1-1.4,1.1l.7.6a8.7,8.7,0,0,0,1.7-1.6l.6-.8a3.7,3.7,0,0,0,.4-1.1,6,6,0,0,0,3.6,2.2l.3-.7h0Z" transform="translate(-1 -1)"/><g class="cls-4"><path class="cls-5" d="M158.9,87.4v.8a4.3,4.3,0,0,1-.1.5l-.2.3h-5.5v16.7a.4.4,0,0,1-.1.3l-.3.2h-3.2l-.3-.2a.4.4,0,0,1-.1-.3V89.1h-5.5l-.2-.3a.7.7,0,0,1-.1-.5V86.6a4.3,4.3,0,0,1,.1-.5l.2-.3h15.2l.2.3a.7.7,0,0,1,.1.5C158.9,86.8,158.9,87,158.9,87.4Z" transform="translate(-1 -1)"/><path class="cls-5" d="M172.8,105.8a.5.5,0,0,1-.2.4l-.5.2h-2l-.5-.2c-.1-.1-.1-.2-.1-.4v-1.1a9.5,9.5,0,0,1-2,1.5,5.3,5.3,0,0,1-2.5.5,6.6,6.6,0,0,1-2.1-.3,4.2,4.2,0,0,1-1.6-.9,4.9,4.9,0,0,1-1.1-1.4,4,4,0,0,1-.4-2,5.1,5.1,0,0,1,.5-2.2,3.6,3.6,0,0,1,1.5-1.5,6.7,6.7,0,0,1,2.4-.9,16.9,16.9,0,0,1,3.3-.3h1.4v-.9a4.9,4.9,0,0,0-.1-1.2,1.5,1.5,0,0,0-.4-.8l-.8-.5-1.3-.2-1.8.2-1.4.5-1,.5a1.1,1.1,0,0,1-.7.2h-.3c-.1-.1-.2-.2-.2-.3a4.3,4.3,0,0,1-.1-.5v-.7a1.9,1.9,0,0,1,.1-.8l.3-.5.8-.5,1.3-.5,1.6-.4,1.8-.2a12.3,12.3,0,0,1,2.9.3,6.3,6.3,0,0,1,2,1,3.7,3.7,0,0,1,1.1,1.8,9.3,9.3,0,0,1,.4,2.5v9.7Zm-3.9-6.1h-3.2l-1.1.4a1.3,1.3,0,0,0-.6.7,2.9,2.9,0,0,0-.2.9,1.7,1.7,0,0,0,.6,1.4,2.5,2.5,0,0,0,1.6.5,2.9,2.9,0,0,0,1.6-.4A4.3,4.3,0,0,0,169,102V99.7Z" transform="translate(-1 -1)"/><path class="cls-5" d="M183.2,86.7a2.5,2.5,0,0,1-.5,1.7,2.6,2.6,0,0,1-1.8.5,3.4,3.4,0,0,1-1.8-.4,2.2,2.2,0,0,1-.5-1.6,2.5,2.5,0,0,1,.5-1.7,3.5,3.5,0,0,1,3.6,0C183,85.4,183.2,85.9,183.2,86.7Zm-.3,19.1a.4.4,0,0,1-.1.3l-.3.2h-3.2l-.3-.2c0-.1-.1-.2-.1-.3V91.6a.4.4,0,0,1,.1-.3l.3-.2h3.2l.3.2c0,.1.1.2.1.3Z" transform="translate(-1 -1)"/><path class="cls-5" d="M210.7,91.5v.4a2.5,2.5,0,0,1-.2.7l-3.8,12.9-.2.4-.4.3h-4.2l-.4-.3-.2-.4-2.4-8.7h0l-2.2,8.7a.5.5,0,0,1-.2.4l-.4.3h-4.2l-.4-.3c-.1-.1-.1-.3-.2-.4l-3.8-12.9-.2-.7v-.4a.4.4,0,0,1,.1-.3l.3-.2h3.2l.3.2a.4.4,0,0,1,.1.3l2.8,10.5v0l2.7-10.5.2-.3.3-.2h3.2l.3.2a.4.4,0,0,1,.1.3l2.8,10.6v0l2.7-10.5c0-.1.1-.2.1-.3l.3-.2H210c.2,0,.2.1.3.2S210.7,91.4,210.7,91.5Z" transform="translate(-1 -1)"/><path class="cls-5" d="M227.1,105.8a.5.5,0,0,1-.2.4l-.5.2h-2l-.5-.2c-.1-.1-.1-.2-.1-.4v-1.1a9.5,9.5,0,0,1-2,1.5,5.3,5.3,0,0,1-2.5.5,6.6,6.6,0,0,1-2.1-.3,4.2,4.2,0,0,1-1.6-.9,4.9,4.9,0,0,1-1.1-1.4,4,4,0,0,1-.4-2,5.1,5.1,0,0,1,.5-2.2,3.6,3.6,0,0,1,1.5-1.5,6.7,6.7,0,0,1,2.4-.9,16.9,16.9,0,0,1,3.3-.3h1.4v-.9a4.9,4.9,0,0,0-.1-1.2,1.5,1.5,0,0,0-.4-.8l-.8-.5-1.3-.2-1.8.2-1.4.5-1,.5a1.1,1.1,0,0,1-.7.2h-.3c-.1-.1-.2-.2-.2-.3a4.3,4.3,0,0,1-.1-.5v-.7a1.9,1.9,0,0,1,.1-.8l.3-.5.8-.5,1.3-.5,1.6-.4,1.8-.2a12.3,12.3,0,0,1,2.9.3,6.3,6.3,0,0,1,2,1,3.7,3.7,0,0,1,1.1,1.8,9.3,9.3,0,0,1,.4,2.5v9.7Zm-4-6.1h-3.2l-1.1.4a1.3,1.3,0,0,0-.6.7,2.9,2.9,0,0,0-.2.9,1.7,1.7,0,0,0,.6,1.4,2.5,2.5,0,0,0,1.6.5,2.9,2.9,0,0,0,1.6-.4,4.3,4.3,0,0,0,1.4-1.3V99.7Z" transform="translate(-1 -1)"/><path class="cls-5" d="M246.7,105.8a.4.4,0,0,1-.1.3l-.3.2h-3.2l-.3-.2c0-.1-.1-.2-.1-.3V97.7a6.3,6.3,0,0,0-.2-1.6,3,3,0,0,0-.4-1,2.3,2.3,0,0,0-.7-.7,2,2,0,0,0-1.1-.2,2.9,2.9,0,0,0-1.6.6,8,8,0,0,0-1.6,1.6v9.5a.4.4,0,0,1-.1.3l-.3.2h-3.2l-.3-.2c0-.1-.1-.2-.1-.3V91.5a.4.4,0,0,1,.1-.3l.3-.2h2.6l.3.2a.4.4,0,0,1,.1.3v1.6a8,8,0,0,1,2.4-1.9,5.8,5.8,0,0,1,2.6-.6,6.2,6.2,0,0,1,2.5.5,4.2,4.2,0,0,1,1.6,1.3,5.6,5.6,0,0,1,.9,1.9,10.1,10.1,0,0,1,.3,2.7v8.8Z" transform="translate(-1 -1)"/><path class="cls-5" d="M276.7,103.2v.7a.9.9,0,0,1-.1.5c0,.1-.1.2-.1.3l-.3.3-.7.5-1.2.6-1.7.4-2,.2a9.2,9.2,0,0,1-3.8-.7,7.2,7.2,0,0,1-2.9-2,8.8,8.8,0,0,1-1.8-3.3,15.3,15.3,0,0,1-.6-4.5,13.7,13.7,0,0,1,.7-4.7,8.8,8.8,0,0,1,2-3.4,10.2,10.2,0,0,1,3-2.1,9.7,9.7,0,0,1,3.9-.7h1.7l1.5.4,1.2.5.8.5c.2.1.2.3.3.4s.1.2.1.4a4.3,4.3,0,0,1,.1.5v1.6a4.3,4.3,0,0,1-.1.5l-.2.3h-.3a.9.9,0,0,1-.6-.3l-1-.6-1.4-.6a5.4,5.4,0,0,0-1.9-.3,5.1,5.1,0,0,0-2.2.5,4.3,4.3,0,0,0-1.6,1.4,5.4,5.4,0,0,0-1,2.3,13.6,13.6,0,0,0-.4,3,10.4,10.4,0,0,0,.4,3.2,6.5,6.5,0,0,0,1.1,2.2,4.3,4.3,0,0,0,1.7,1.3,6.2,6.2,0,0,0,4.1.1l1.4-.6,1-.6c.3-.2.4-.3.6-.3h.3l.2.3a.9.9,0,0,1,.1.5A1.2,1.2,0,0,0,276.7,103.2Z" transform="translate(-1 -1)"/><path class="cls-5" d="M294.6,98.2a1.6,1.6,0,0,1-.3,1.1,1.3,1.3,0,0,1-.9.4h-8.7a8.8,8.8,0,0,0,.2,1.7,3.3,3.3,0,0,0,.7,1.3,3.6,3.6,0,0,0,1.2.8,4.8,4.8,0,0,0,1.8.3l1.9-.2,1.4-.3,1-.3.6-.2h.2l.2.2c0,.1.1.2.1.4v1.7c0,.1-.1.2-.1.3a.2.2,0,0,1-.2.2l-.6.3-1.2.4-1.6.3h-2a10.4,10.4,0,0,1-3.3-.5,4.9,4.9,0,0,1-2.4-1.5,6.8,6.8,0,0,1-1.4-2.5,12.3,12.3,0,0,1-.5-3.5,11.6,11.6,0,0,1,.5-3.4,7.2,7.2,0,0,1,1.4-2.6,5.3,5.3,0,0,1,2.3-1.6,7.3,7.3,0,0,1,3-.6,9.6,9.6,0,0,1,3.1.5,6.2,6.2,0,0,1,2.1,1.5,7.8,7.8,0,0,1,1.2,2.2,8.2,8.2,0,0,1,.4,2.8v.6Zm-3.9-1.1a4.5,4.5,0,0,0-.7-2.7,2.7,2.7,0,0,0-2.2-1,2.5,2.5,0,0,0-1.3.3,2.4,2.4,0,0,0-.9.8,4.3,4.3,0,0,0-.8,2.6Z" transform="translate(-1 -1)"/><path class="cls-5" d="M313.6,105.8a.4.4,0,0,1-.1.3l-.3.2H310l-.3-.2c0-.1-.1-.2-.1-.3V97.7a6.3,6.3,0,0,0-.2-1.6,3,3,0,0,0-.4-1,2.3,2.3,0,0,0-.7-.7,2,2,0,0,0-1.1-.2,2.9,2.9,0,0,0-1.6.6,8,8,0,0,0-1.6,1.6v9.5a.4.4,0,0,1-.1.3l-.3.2h-3.2l-.3-.2c0-.1-.1-.2-.1-.3V91.5a.4.4,0,0,1,.1-.3l.3-.2H303l.3.2a.4.4,0,0,1,.1.3v1.6a8,8,0,0,1,2.4-1.9,5.8,5.8,0,0,1,2.6-.6,6.2,6.2,0,0,1,2.5.5,4.2,4.2,0,0,1,1.6,1.3,5.6,5.6,0,0,1,.9,1.9,10.1,10.1,0,0,1,.3,2.7v8.8Z" transform="translate(-1 -1)"/><path class="cls-5" d="M327.7,104.4a3.4,3.4,0,0,1-.1,1.1c-.1.3-.1.4-.2.5l-.4.3-.7.2h-1.7a6.6,6.6,0,0,1-2.1-.3,3.8,3.8,0,0,1-1.5-.9,3,3,0,0,1-.8-1.6,7.5,7.5,0,0,1-.3-2.3V94.2h-1.7a.5.5,0,0,1-.5-.4,3.9,3.9,0,0,1-.2-1.3v-.8a4.3,4.3,0,0,1,.1-.5l.2-.3h2V87.6a.4.4,0,0,1,.1-.3l.3-.2h3.2l.3.2c0,.1.1.2.1.3V91h3.4l.2.3a.7.7,0,0,1,.1.5v.8a3.9,3.9,0,0,1-.2,1.3.5.5,0,0,1-.5.4h-3.1v6.7a3,3,0,0,0,.4,1.8,1.4,1.4,0,0,0,1.3.6h1.8c.1,0,.1.1.1.2a4.3,4.3,0,0,1,.1.5C327.7,103.8,327.7,104.1,327.7,104.4Z" transform="translate(-1 -1)"/><path class="cls-5" d="M345.4,98.2a1.6,1.6,0,0,1-.3,1.1,1.3,1.3,0,0,1-.9.4h-8.7a8.8,8.8,0,0,0,.2,1.7,3.3,3.3,0,0,0,.7,1.3,3.6,3.6,0,0,0,1.2.8,4.8,4.8,0,0,0,1.8.3l1.9-.2,1.4-.3,1-.3.6-.2h.2l.2.2c0,.1.1.2.1.4v1.7c0,.1-.1.2-.1.3a.2.2,0,0,1-.2.2l-.6.3-1.2.4-1.6.3h-2a10.4,10.4,0,0,1-3.3-.5,4.9,4.9,0,0,1-2.4-1.5,6.8,6.8,0,0,1-1.4-2.5,12.3,12.3,0,0,1-.5-3.5,11.6,11.6,0,0,1,.5-3.4,7.2,7.2,0,0,1,1.4-2.6,5.3,5.3,0,0,1,2.3-1.6,7.3,7.3,0,0,1,3-.6,9.6,9.6,0,0,1,3.1.5,6.2,6.2,0,0,1,2.1,1.5,7.8,7.8,0,0,1,1.2,2.2,8.2,8.2,0,0,1,.4,2.8v.6Zm-3.9-1.1a4.5,4.5,0,0,0-.7-2.7,2.7,2.7,0,0,0-2.2-1,2.5,2.5,0,0,0-1.3.3,2.4,2.4,0,0,0-.9.8,4.3,4.3,0,0,0-.8,2.6Z" transform="translate(-1 -1)"/><path class="cls-5" d="M359.8,92.9v.9c0,.2-.1.4-.1.6s-.1.2-.2.3h-2.6l-.7.4a5.9,5.9,0,0,0-.8.8,6.2,6.2,0,0,0-.8,1.2v8.9a.4.4,0,0,1-.1.3l-.3.2H351l-.3-.2c0-.1-.1-.2-.1-.3V91.5a.4.4,0,0,1,.1-.3l.3-.2h2.6l.3.2a.4.4,0,0,1,.1.3v1.8a7.5,7.5,0,0,1,1.1-1.3l.9-.8.9-.4h2.2l.3.2v.2c0,.1.1.2.1.3v.5C359.6,92.3,359.8,92.5,359.8,92.9Z" transform="translate(-1 -1)"/><path class="cls-5" d="M374,101.8a4.6,4.6,0,0,1-.5,2.1,4.8,4.8,0,0,1-1.3,1.6,4.6,4.6,0,0,1-2,.9,10.1,10.1,0,0,1-2.5.3h-1.5l-1.3-.3-1-.4-.6-.4-.3-.5a3.1,3.1,0,0,1-.1-1.1v-.7c0-.2.1-.3.1-.4l.2-.2h.2l.5.2.9.4a3.4,3.4,0,0,0,1.2.4l1.5.2h1l.7-.3a1.2,1.2,0,0,0,.5-.5,1.9,1.9,0,0,0,.2-.7,1.1,1.1,0,0,0-.3-.8l-.8-.6-1.1-.5-1.3-.5-1.3-.6a3.1,3.1,0,0,1-1.1-.9,5,5,0,0,1-.8-1.2,4.7,4.7,0,0,1-.3-1.7,4.1,4.1,0,0,1,.4-1.9,4.4,4.4,0,0,1,1.2-1.5,5.1,5.1,0,0,1,1.8-.9,8.8,8.8,0,0,1,2.4-.3H370l1.1.2.9.3.5.3.2.2c0,.1.1.2.1.3a.6.6,0,0,0,.1.4v1.3c0,.2,0,.3-.1.4l-.2.2h-.2l-.4-.2-.8-.4-1.1-.4-1.4-.2h-.9l-.7.3a1,1,0,0,0-.4.5,1.3,1.3,0,0,0-.1.6,1.1,1.1,0,0,0,.3.8l.8.6,1.1.5,1.3.5,1.3.6a3.1,3.1,0,0,1,1.1.9,5,5,0,0,1,.8,1.2A2.5,2.5,0,0,1,374,101.8Z" transform="translate(-1 -1)"/><path class="cls-5" d="M397,86.1v.7c0,.2-.1.3-.1.4v.2h-2.5a1,1,0,0,0-.5.4l-.3.8a4.1,4.1,0,0,0-.1,1.2V91h2.9l.2.3a.7.7,0,0,1,.1.5v.8a3.9,3.9,0,0,1-.2,1.3.5.5,0,0,1-.5.4h-2.6V106a.4.4,0,0,1-.1.3l-.3.2h-3.2l-.3-.2c0-.1-.1-.2-.1-.3V94.2h-1.8a.5.5,0,0,1-.5-.4,3.9,3.9,0,0,1-.2-1.3v-.8a4.3,4.3,0,0,1,.1-.5l.2-.3h2.1V89.6a10.3,10.3,0,0,1,.3-2.6,5.1,5.1,0,0,1,.9-1.8,3.8,3.8,0,0,1,1.6-1.1,7.2,7.2,0,0,1,2.2-.4h1.2l.9.2.4.2.2.3a4.3,4.3,0,0,1,.1.5Z" transform="translate(-1 -1)"/><path class="cls-5" d="M414.7,98.5a11.4,11.4,0,0,1-.5,3.3,6.1,6.1,0,0,1-1.5,2.6,8.1,8.1,0,0,1-2.4,1.7,8.6,8.6,0,0,1-3.4.6,10.4,10.4,0,0,1-3.3-.5,7.6,7.6,0,0,1-2.3-1.5,6.8,6.8,0,0,1-1.4-2.5,11.8,11.8,0,0,1-.4-3.4,11.4,11.4,0,0,1,.5-3.3,6.1,6.1,0,0,1,1.5-2.6,8.1,8.1,0,0,1,2.4-1.7,9,9,0,0,1,3.4-.6,10.4,10.4,0,0,1,3.3.5,6.1,6.1,0,0,1,2.3,1.5,6.8,6.8,0,0,1,1.4,2.5A11.8,11.8,0,0,1,414.7,98.5Zm-4.1.2a10.1,10.1,0,0,0-.2-1.9,3.4,3.4,0,0,0-.6-1.5,2.7,2.7,0,0,0-1.1-1,3.9,3.9,0,0,0-1.7-.4,4.1,4.1,0,0,0-1.6.3,2.6,2.6,0,0,0-1.1,1,3.9,3.9,0,0,0-.6,1.5,12.3,12.3,0,0,0-.2,2,10.1,10.1,0,0,0,.2,1.9,3.9,3.9,0,0,0,.6,1.5,2.7,2.7,0,0,0,1.1,1,3.9,3.9,0,0,0,1.7.4,4.1,4.1,0,0,0,1.6-.3,2.1,2.1,0,0,0,1.1-1,3.9,3.9,0,0,0,.6-1.5A12.3,12.3,0,0,0,410.6,98.7Z" transform="translate(-1 -1)"/><path class="cls-5" d="M429.1,92.9v.9c0,.2-.1.4-.1.6s-.1.2-.2.3h-2.6l-.7.4a5.9,5.9,0,0,0-.8.8,6.2,6.2,0,0,0-.8,1.2v8.9a.4.4,0,0,1-.1.3l-.3.2h-3.2l-.3-.2a.4.4,0,0,1-.1-.3V91.5a.4.4,0,0,1,.1-.3l.3-.2h2.6l.3.2a.4.4,0,0,1,.1.3v1.8a7.5,7.5,0,0,1,1.1-1.3l.9-.8.9-.4h2.2l.3.2v.2c0,.1.1.2.1.3v.5C428.9,92.3,429.1,92.5,429.1,92.9Z" transform="translate(-1 -1)"/><path class="cls-5" d="M460.4,95.7a14.5,14.5,0,0,1-.7,4.9,7.8,7.8,0,0,1-2.1,3.3,8.1,8.1,0,0,1-3.4,1.9,16.3,16.3,0,0,1-4.7.6h-4.9a1.4,1.4,0,0,1-.9-.3,1.3,1.3,0,0,1-.4-1V87a1.1,1.1,0,0,1,.4-1,1.2,1.2,0,0,1,.9-.3h5.3a16.3,16.3,0,0,1,4.7.6,7.8,7.8,0,0,1,3.2,1.9,9.8,9.8,0,0,1,2,3.1A11.7,11.7,0,0,1,460.4,95.7Zm-4.4.1a11.2,11.2,0,0,0-.3-2.7,5.7,5.7,0,0,0-1.1-2.2,4.8,4.8,0,0,0-2-1.4,8.7,8.7,0,0,0-3.1-.5h-2.1v14h2.2a8.1,8.1,0,0,0,2.9-.4,5.6,5.6,0,0,0,2-1.4,7.8,7.8,0,0,0,1.2-2.2A15.1,15.1,0,0,0,456,95.8Z" transform="translate(-1 -1)"/><path class="cls-5" d="M469.9,86.7a2.5,2.5,0,0,1-.5,1.7,2.6,2.6,0,0,1-1.8.5,3.4,3.4,0,0,1-1.8-.4,2,2,0,0,1-.5-1.6,2.5,2.5,0,0,1,.5-1.7,3.5,3.5,0,0,1,3.6,0C469.8,85.4,469.9,85.9,469.9,86.7Zm-.3,19.1a.4.4,0,0,1-.1.3l-.3.2H466l-.3-.2a.4.4,0,0,1-.1-.3V91.6a.4.4,0,0,1,.1-.3l.3-.2h3.2l.3.2a.4.4,0,0,1,.1.3Z" transform="translate(-1 -1)"/><path class="cls-5" d="M485.7,101.8a4.6,4.6,0,0,1-.5,2.1,4.8,4.8,0,0,1-1.3,1.6,6.1,6.1,0,0,1-2,.9,10.1,10.1,0,0,1-2.5.3h-1.5l-1.3-.3-1-.4-.6-.4-.3-.5a3.1,3.1,0,0,1-.1-1.1v-.7c0-.2.1-.3.1-.4l.2-.2h.2l.5.2.9.4a3.4,3.4,0,0,0,1.2.4l1.5.2h1l.7-.3a1.2,1.2,0,0,0,.5-.5,1.9,1.9,0,0,0,.2-.7,1.1,1.1,0,0,0-.3-.8l-.8-.6-1.1-.5-1.3-.5-1.3-.6a3.1,3.1,0,0,1-1.1-.9,5,5,0,0,1-.8-1.2,4.7,4.7,0,0,1-.3-1.7,4.1,4.1,0,0,1,.4-1.9,4.4,4.4,0,0,1,1.2-1.5A5.1,5.1,0,0,1,478,91a8.8,8.8,0,0,1,2.4-.3h1.3l1.1.2.9.3.5.3.2.2a1,1,0,0,1,.1.3.6.6,0,0,0,.1.4v1.3c0,.2,0,.3-.1.4l-.2.2h-.2l-.4-.2-.8-.4-1.1-.4-1.4-.2h-.9l-.7.3a1,1,0,0,0-.4.5,1.3,1.3,0,0,0-.1.6,1.1,1.1,0,0,0,.3.8l.8.6,1.1.5,1.3.5,1.3.6a3.1,3.1,0,0,1,1.1.9,5,5,0,0,1,.8,1.2A2.5,2.5,0,0,1,485.7,101.8Z" transform="translate(-1 -1)"/><path class="cls-5" d="M503.9,98.2a1.6,1.6,0,0,1-.3,1.1,1.3,1.3,0,0,1-.9.4H494a8.8,8.8,0,0,0,.2,1.7,3.3,3.3,0,0,0,.7,1.3,3.6,3.6,0,0,0,1.2.8,4.8,4.8,0,0,0,1.8.3l1.9-.2,1.4-.3,1-.3.6-.2h.2l.2.2c0,.1.1.2.1.4v1.7c0,.1-.1.2-.1.3l-.2.2-.6.3-1.2.4-1.6.3h-2a10.4,10.4,0,0,1-3.3-.5,5.5,5.5,0,0,1-2.4-1.5,6.8,6.8,0,0,1-1.4-2.5,12.3,12.3,0,0,1-.5-3.5,11.6,11.6,0,0,1,.5-3.4,7.2,7.2,0,0,1,1.4-2.6,5.3,5.3,0,0,1,2.3-1.6,7.3,7.3,0,0,1,3-.6,9.6,9.6,0,0,1,3.1.5,6.2,6.2,0,0,1,2.1,1.5,7.8,7.8,0,0,1,1.2,2.2,8.2,8.2,0,0,1,.4,2.8v.6ZM500,97.1a4.5,4.5,0,0,0-.7-2.7,2.7,2.7,0,0,0-2.2-1,2.5,2.5,0,0,0-1.3.3,2.4,2.4,0,0,0-.9.8,3.4,3.4,0,0,0-.6,1.2,5.9,5.9,0,0,0-.2,1.4Z" transform="translate(-1 -1)"/><path class="cls-5" d="M521.4,105.8a.5.5,0,0,1-.2.4l-.5.2h-2l-.5-.2c-.1-.1-.1-.2-.1-.4v-1.1a9.5,9.5,0,0,1-2,1.5,5.3,5.3,0,0,1-2.5.5,6.6,6.6,0,0,1-2.1-.3,4.2,4.2,0,0,1-1.6-.9,4.9,4.9,0,0,1-1.1-1.4,4,4,0,0,1-.4-2,5.1,5.1,0,0,1,.5-2.2,3.6,3.6,0,0,1,1.5-1.5,6.7,6.7,0,0,1,2.4-.9,16.9,16.9,0,0,1,3.3-.3h1.4v-.9a4.9,4.9,0,0,0-.1-1.2,1.5,1.5,0,0,0-.4-.8l-.8-.5-1.3-.2-1.8.2-1.4.5-1,.5a1.1,1.1,0,0,1-.7.2h-.3c-.1-.1-.2-.2-.2-.3a4.3,4.3,0,0,1-.1-.5v-.7a1.9,1.9,0,0,1,.1-.8l.3-.5.8-.5,1.3-.5,1.6-.4,1.8-.2a12.3,12.3,0,0,1,2.9.3,6.3,6.3,0,0,1,2,1,2.8,2.8,0,0,1,1.1,1.8,9.3,9.3,0,0,1,.4,2.5v9.7Zm-4-6.1h-3.2l-1.1.4a1.3,1.3,0,0,0-.6.7,2.9,2.9,0,0,0-.2.9,1.7,1.7,0,0,0,.6,1.4,2.5,2.5,0,0,0,1.6.5,2.9,2.9,0,0,0,1.6-.4,4.3,4.3,0,0,0,1.4-1.3V99.7Z" transform="translate(-1 -1)"/><path class="cls-5" d="M537.4,101.8a4.6,4.6,0,0,1-.5,2.1,4.8,4.8,0,0,1-1.3,1.6,6.1,6.1,0,0,1-2,.9,10.1,10.1,0,0,1-2.5.3h-1.5l-1.3-.3-1-.4a1.3,1.3,0,0,1-.6-.4l-.3-.5a3.1,3.1,0,0,1-.1-1.1v-.7c0-.2.1-.3.1-.4a.2.2,0,0,1,.2-.2h.2l.5.2.9.4a3.4,3.4,0,0,0,1.2.4l1.5.2h1l.7-.3a1.2,1.2,0,0,0,.5-.5,1.9,1.9,0,0,0,.2-.7,1.1,1.1,0,0,0-.3-.8l-.8-.6-1.1-.5-1.3-.5-1.3-.6a3.1,3.1,0,0,1-1.1-.9,5,5,0,0,1-.8-1.2,4.7,4.7,0,0,1-.3-1.7,4.1,4.1,0,0,1,.4-1.9,4.4,4.4,0,0,1,1.2-1.5,5.1,5.1,0,0,1,1.8-.9,8.8,8.8,0,0,1,2.4-.3h1.3l1.1.2.9.3.5.3.2.2a1,1,0,0,1,.1.3.6.6,0,0,0,.1.4v1.3c0,.2,0,.3-.1.4a.2.2,0,0,1-.2.2h-.2l-.4-.2-.8-.4-1.1-.4-1.4-.2h-.9l-.7.3a1,1,0,0,0-.4.5,1.3,1.3,0,0,0-.1.6,1.1,1.1,0,0,0,.3.8l.8.6,1.1.5,1.3.5,1.3.6a3.1,3.1,0,0,1,1.1.9,5,5,0,0,1,.8,1.2A2.5,2.5,0,0,1,537.4,101.8Z" transform="translate(-1 -1)"/><path class="cls-5" d="M555.7,98.2a1.6,1.6,0,0,1-.3,1.1,1.3,1.3,0,0,1-.9.4h-8.7a8.8,8.8,0,0,0,.2,1.7,3.3,3.3,0,0,0,.7,1.3,3.6,3.6,0,0,0,1.2.8,4.8,4.8,0,0,0,1.8.3l1.9-.2,1.4-.3,1-.3.6-.2h.2l.2.2c0,.1.1.2.1.4v1.7c0,.1-.1.2-.1.3a.2.2,0,0,1-.2.2l-.6.3-1.2.4-1.6.3h-2a10.4,10.4,0,0,1-3.3-.5,4.9,4.9,0,0,1-2.4-1.5,6.8,6.8,0,0,1-1.4-2.5,12.3,12.3,0,0,1-.5-3.5,11.6,11.6,0,0,1,.5-3.4,7.2,7.2,0,0,1,1.4-2.6,5.3,5.3,0,0,1,2.3-1.6,9.4,9.4,0,0,1,3-.6,9.6,9.6,0,0,1,3.1.5,6.2,6.2,0,0,1,2.1,1.5,7.8,7.8,0,0,1,1.2,2.2,8.2,8.2,0,0,1,.4,2.8v.6Zm-4-1.1a4.5,4.5,0,0,0-.7-2.7,2.5,2.5,0,0,0-2.2-1,2.5,2.5,0,0,0-1.3.3,2.4,2.4,0,0,0-.9.8,3.4,3.4,0,0,0-.6,1.2,5.9,5.9,0,0,0-.2,1.4Z" transform="translate(-1 -1)"/><path class="cls-5" d="M584.9,103.2v.7a.9.9,0,0,1-.1.5c0,.1-.1.2-.1.3s-.1.2-.3.3l-.7.5-1.2.6-1.7.4-2,.2a9.2,9.2,0,0,1-3.8-.7,7.2,7.2,0,0,1-2.9-2,8.8,8.8,0,0,1-1.8-3.3,15.3,15.3,0,0,1-.6-4.5,13.7,13.7,0,0,1,.7-4.7,8.8,8.8,0,0,1,2-3.4,10.2,10.2,0,0,1,3-2.1,9.7,9.7,0,0,1,3.9-.7H581l1.5.4,1.2.5.8.5.3.4c.1.1.1.2.1.4a4.3,4.3,0,0,1,.1.5v1.6a4.3,4.3,0,0,1-.1.5l-.2.3h-.3a.9.9,0,0,1-.6-.3l-1-.6-1.4-.6a5.4,5.4,0,0,0-1.9-.3,5.1,5.1,0,0,0-2.2.5,4.3,4.3,0,0,0-1.6,1.4,5.4,5.4,0,0,0-1,2.3,13.6,13.6,0,0,0-.4,3,10.4,10.4,0,0,0,.4,3.2,6.5,6.5,0,0,0,1.1,2.2,4.3,4.3,0,0,0,1.7,1.3,6.2,6.2,0,0,0,4.1.1l1.4-.6,1-.6.6-.3h.3c.1,0,.1.1.2.3a4.3,4.3,0,0,1,.1.5A1.2,1.2,0,0,0,584.9,103.2Z" transform="translate(-1 -1)"/><path class="cls-5" d="M604.1,98.5a11.4,11.4,0,0,1-.5,3.3,6.1,6.1,0,0,1-1.5,2.6,8.1,8.1,0,0,1-2.4,1.7,8.6,8.6,0,0,1-3.4.6,10.4,10.4,0,0,1-3.3-.5,7.6,7.6,0,0,1-2.3-1.5,6.8,6.8,0,0,1-1.4-2.5,11.8,11.8,0,0,1-.4-3.4,11.4,11.4,0,0,1,.5-3.3,6.1,6.1,0,0,1,1.5-2.6,8.1,8.1,0,0,1,2.4-1.7,9,9,0,0,1,3.4-.6,10.4,10.4,0,0,1,3.3.5,6.1,6.1,0,0,1,2.3,1.5,6.8,6.8,0,0,1,1.4,2.5A11.8,11.8,0,0,1,604.1,98.5Zm-4.1.2a10.1,10.1,0,0,0-.2-1.9,3.4,3.4,0,0,0-.6-1.5,2.7,2.7,0,0,0-1.1-1,3.9,3.9,0,0,0-1.7-.4,4.1,4.1,0,0,0-1.6.3,2.6,2.6,0,0,0-1.1,1,3.9,3.9,0,0,0-.6,1.5,12.3,12.3,0,0,0-.2,2,10.1,10.1,0,0,0,.2,1.9,3.9,3.9,0,0,0,.6,1.5,2.7,2.7,0,0,0,1.1,1,3.9,3.9,0,0,0,1.7.4,4.1,4.1,0,0,0,1.6-.3,2.1,2.1,0,0,0,1.1-1,3.9,3.9,0,0,0,.6-1.5A12.3,12.3,0,0,0,600,98.7Z" transform="translate(-1 -1)"/><path class="cls-5" d="M623,105.8a.4.4,0,0,1-.1.3l-.3.2h-3.2l-.3-.2a.4.4,0,0,1-.1-.3V97.7a6.3,6.3,0,0,0-.2-1.6,3,3,0,0,0-.4-1l-.7-.7a2,2,0,0,0-1.1-.2,2.9,2.9,0,0,0-1.6.6,6.1,6.1,0,0,0-1.6,1.6v9.5a.4.4,0,0,1-.1.3l-.3.2h-3.2l-.3-.2a.4.4,0,0,1-.1-.3V91.5a.4.4,0,0,1,.1-.3l.3-.2h2.6l.3.2a.4.4,0,0,1,.1.3v1.6a8,8,0,0,1,2.4-1.9,5.8,5.8,0,0,1,2.6-.6,6.2,6.2,0,0,1,2.5.5,4.2,4.2,0,0,1,1.6,1.3,5.6,5.6,0,0,1,.9,1.9,10.1,10.1,0,0,1,.3,2.7v8.8Z" transform="translate(-1 -1)"/><path class="cls-5" d="M637.1,104.4a3.4,3.4,0,0,1-.1,1.1c-.1.3-.1.4-.2.5l-.4.3-.7.2H634a6.6,6.6,0,0,1-2.1-.3,3.8,3.8,0,0,1-1.5-.9,3,3,0,0,1-.8-1.6,7.5,7.5,0,0,1-.3-2.3V94.2h-1.7a.5.5,0,0,1-.5-.4,3.9,3.9,0,0,1-.2-1.3v-.8a4.3,4.3,0,0,1,.1-.5l.2-.3h2V87.6a.4.4,0,0,1,.1-.3l.3-.2h3.2l.3.2a.4.4,0,0,1,.1.3V91h3.4l.2.3a.7.7,0,0,1,.1.5v.8a3.9,3.9,0,0,1-.2,1.3.5.5,0,0,1-.5.4h-3.1v6.7a3,3,0,0,0,.4,1.8,1.4,1.4,0,0,0,1.3.6h1.8c.1,0,.1.1.1.2a4.3,4.3,0,0,1,.1.5C636.8,104.1,637.1,104.1,637.1,104.4Z" transform="translate(-1 -1)"/><path class="cls-5" d="M651.1,92.9v.9c0,.2-.1.4-.1.6s-.1.2-.2.3h-2.6l-.7.4a5.9,5.9,0,0,0-.8.8,6.2,6.2,0,0,0-.8,1.2v8.9a.4.4,0,0,1-.1.3l-.3.2h-3.2l-.3-.2a.4.4,0,0,1-.1-.3V91.5a.4.4,0,0,1,.1-.3l.3-.2h2.6l.3.2a.4.4,0,0,1,.1.3v1.8a7.5,7.5,0,0,1,1.1-1.3l.9-.8.9-.4h2.2l.3.2v.2c0,.1.1.2.1.3v.5C650.9,92.3,651.1,92.5,651.1,92.9Z" transform="translate(-1 -1)"/><path class="cls-5" d="M669.6,98.5a11.4,11.4,0,0,1-.5,3.3,6.1,6.1,0,0,1-1.5,2.6,8.1,8.1,0,0,1-2.4,1.7,8.6,8.6,0,0,1-3.4.6,10.4,10.4,0,0,1-3.3-.5,7.6,7.6,0,0,1-2.3-1.5,6.8,6.8,0,0,1-1.4-2.5,11.8,11.8,0,0,1-.4-3.4,11.4,11.4,0,0,1,.5-3.3,6.1,6.1,0,0,1,1.5-2.6,8.1,8.1,0,0,1,2.4-1.7,9,9,0,0,1,3.4-.6,10.4,10.4,0,0,1,3.3.5,6.1,6.1,0,0,1,2.3,1.5,6.8,6.8,0,0,1,1.4,2.5A11.8,11.8,0,0,1,669.6,98.5Zm-4.1.2a10.1,10.1,0,0,0-.2-1.9,3.4,3.4,0,0,0-.6-1.5,2.7,2.7,0,0,0-1.1-1,3.9,3.9,0,0,0-1.7-.4,4.1,4.1,0,0,0-1.6.3,2.6,2.6,0,0,0-1.1,1,3.9,3.9,0,0,0-.6,1.5,12.3,12.3,0,0,0-.2,2,10.1,10.1,0,0,0,.2,1.9,3.9,3.9,0,0,0,.6,1.5,2.7,2.7,0,0,0,1.1,1,3.9,3.9,0,0,0,1.7.4,4.1,4.1,0,0,0,1.6-.3,2.1,2.1,0,0,0,1.1-1,3.9,3.9,0,0,0,.6-1.5A12.3,12.3,0,0,0,665.5,98.7Z" transform="translate(-1 -1)"/><path class="cls-5" d="M678.9,105.8a.4.4,0,0,1-.1.3l-.3.2h-3.2l-.3-.2a.4.4,0,0,1-.1-.3v-21a.4.4,0,0,1,.1-.3l.3-.2h3.2l.3.2a.4.4,0,0,1,.1.3Z" transform="translate(-1 -1)"/></g></svg>