<svg xmlns="http://www.w3.org/2000/svg" xmlns:xlink="http://www.w3.org/1999/xlink" width="57.348" height="57.348" viewBox="0 0 57.348 57.348">
  <defs>
    <clipPath id="clip-path">
      <rect width="57.348" height="57.348" fill="none"/>
    </clipPath>
    <clipPath id="clip-path-2">
      <circle id="椭圆_1" data-name="椭圆 1" cx="25.674" cy="25.674" r="25.674" fill="#b3cbe0" stroke="#f3f3f3" stroke-width="3"/>
    </clipPath>
  </defs>
  <g id="熊健康小" clip-path="url(#clip-path)">
    <g id="椭圆_2" data-name="椭圆 2" transform="translate(3 3)" fill="#98d5e1" stroke="#f9f9f9" stroke-width="3">
      <circle cx="25.674" cy="25.674" r="25.674" stroke="none"/>
      <circle cx="25.674" cy="25.674" r="27.174" fill="none"/>
    </g>
    <g id="蒙版组_1" data-name="蒙版组 1" transform="translate(3 3)" clip-path="url(#clip-path-2)">
      <g id="组_206" data-name="组 206" transform="translate(2.054 5.126)">
        <g id="组_205" data-name="组 205">
          <g id="组_190" data-name="组 190" transform="translate(4.62)">
            <path id="路径_348" data-name="路径 348" d="M-4002-708.893c3.61-7.691,3.453-17.579,3.453-17.579.314-9.732-5.022-29.823-5.022-29.823-.847-6.2-4.21-16.417-4.737-17.863a2.824,2.824,0,0,0,1.6-2.541,2.825,2.825,0,0,0-2.826-2.826,2.823,2.823,0,0,0-2.812,2.591,17.27,17.27,0,0,0-5.035-.707,17.533,17.533,0,0,0-4.728.616,2.826,2.826,0,0,0-2.806-2.5,2.826,2.826,0,0,0-2.825,2.826,2.819,2.819,0,0,0,1.338,2.4c-.269.65-3.905,11.52-4.791,18.006,0,0-4.395,20.405-4.081,30.137,0,0-.627,8.476,5.023,18.521,0,0,1.883,2.826,3.454,5.023,0,0,.627.942-.629,1.256l-2.825.628s-2.825.628-2.825,2.511c0,0-.628,2.511,2.51,3.453a17.727,17.727,0,0,0,6.906.314s4.709-.628,4.4-4.395c0,0,.156-4.238,2.2-4.253h0c1.728.015,1.885,3.625,1.885,3.625-.157,4.238,4.081,5.023,4.081,5.023a17.723,17.723,0,0,0,6.906-.314c3.139-.942,2.511-3.453,2.511-3.453a2.913,2.913,0,0,0-2.2-2.511l-.942-.314c-1.255-.314-.628-1.57-.628-1.57A49.807,49.807,0,0,0-4002-708.893Z" transform="translate(4035.833 780.061)" fill="#fff"/>
            <path id="路径_349" data-name="路径 349" d="M-4026.923-694.411a18.778,18.778,0,0,1-4.5-.552c-3.275-.983-2.99-3.544-2.906-4.023.047-2.246,3.113-2.953,3.245-2.982l2.825-.628c.25-.063.345-.15.36-.186a.417.417,0,0,0-.062-.249c-1.547-2.165-3.434-4.994-3.453-5.023-5.576-9.91-5.156-18.18-5.113-18.829-.3-9.7,3.913-29.4,4.094-30.239.823-6.048,3.937-15.579,4.673-17.694a3.334,3.334,0,0,1-1.232-2.6,3.366,3.366,0,0,1,3.362-3.362,3.359,3.359,0,0,1,3.213,2.375,18.593,18.593,0,0,1,4.321-.491,18.3,18.3,0,0,1,4.615.566,3.383,3.383,0,0,1,3.233-2.449,3.365,3.365,0,0,1,3.362,3.362,3.333,3.333,0,0,1-1.48,2.783c.814,2.369,3.8,11.605,4.609,17.516.318,1.2,5.341,20.348,5.032,29.945.007.383.117,10.075-3.5,17.789a50.07,50.07,0,0,1-3.473,6.322.839.839,0,0,0-.055.568.49.49,0,0,0,.347.212l.959.318a3.417,3.417,0,0,1,2.583,2.955c.078.423.422,3.046-2.889,4.039a18.092,18.092,0,0,1-7.157.328c-.048-.009-4.677-.92-4.521-5.547-.05-1.019-.441-3.084-1.352-3.092-1.136.008-1.6,2.48-1.656,3.706.257,3.357-3.063,4.7-4.862,4.937A14.682,14.682,0,0,1-4026.923-694.411Zm9.135-9.939c2.182.019,2.4,3.717,2.423,4.138a.428.428,0,0,1,0,.043,4.4,4.4,0,0,0,3.643,4.476,17.322,17.322,0,0,0,6.668-.3c2.6-.782,2.152-2.724,2.132-2.806a.576.576,0,0,1-.014-.089,2.376,2.376,0,0,0-1.783-2.03l-.049-.014-.942-.314a1.454,1.454,0,0,1-1.023-.794,1.917,1.917,0,0,1,.085-1.524.613.613,0,0,1,.043-.072,49.73,49.73,0,0,0,3.4-6.191v0c3.514-7.485,3.4-17.245,3.4-17.343.308-9.567-4.953-29.493-5-29.694a.431.431,0,0,1-.013-.065c-.843-6.184-4.253-16.5-4.708-17.752a.535.535,0,0,1,.27-.666,2.275,2.275,0,0,0,1.294-2.059,2.293,2.293,0,0,0-2.29-2.289,2.3,2.3,0,0,0-2.279,2.1.537.537,0,0,1-.235.4.533.533,0,0,1-.458.068,16.732,16.732,0,0,0-4.876-.683,17.061,17.061,0,0,0-4.583.6.539.539,0,0,1-.444-.07.532.532,0,0,1-.235-.384,2.286,2.286,0,0,0-2.272-2.025,2.292,2.292,0,0,0-2.29,2.289,2.276,2.276,0,0,0,1.085,1.943.535.535,0,0,1,.211.66c-.208.5-3.871,11.4-4.754,17.874-.05.244-4.384,20.492-4.076,30.047,0,.019,0,.038,0,.057-.006.083-.541,8.447,4.955,18.219h0s1.877,2.811,3.422,4.974a1.44,1.44,0,0,1,.179,1.244,1.457,1.457,0,0,1-1.114.843l-2.839.631c-.023.005-2.406.582-2.406,1.988a.521.521,0,0,1-.015.13c-.048.2-.4,2.046,2.145,2.81a17.313,17.313,0,0,0,6.656.3c.2-.028,4.224-.615,3.957-3.823a.412.412,0,0,1,0-.065C-4020.5-700.067-4020.27-704.332-4017.788-704.35Z" transform="translate(4036.551 780.775)"/>
          </g>
          <path id="路径_350" data-name="路径 350" d="M-4034.222-715.623c-2.285,1.821-6.013,16.181-6.013,16.181s2.985,2.036,1.5,3.716c0,0-.785.67-1.4.275a.326.326,0,0,0-.509.2c-.265,1.361-.866,3.354-3.1,3.176,0,0-2.7-.088-2.179-4.767,0,0-1.23-19.512,9.778-35.1" transform="translate(4046.561 752.885)" fill="#fff"/>
          <path id="路径_351" data-name="路径 351" d="M-4004.707-706.742l-.715-3.146L-4010-724.9c.143-4.861-.522-3.806-.522-3.806a16.958,16.958,0,0,1-13.067,6.237c-15.054-3.431-13.11-10.865-13.11-10.865a70.431,70.431,0,0,0-8.613,26.591l-.393,3.467,6,.322-.374,2.716s2.847,2,1.5,3.716a2.022,2.022,0,0,1-1.912.472l-.506,1.566,1.073,3.967s18.871-.643,34.632-.429C-4005.279-690.944-4003.814-700.559-4004.707-706.742Z" transform="translate(4046.397 753.681)" fill="#c0e4ea"/>
          <g id="组_191" data-name="组 191" transform="translate(33.729 15.007)">
            <path id="路径_352" data-name="路径 352" d="M-3965.7-729.2a74.742,74.742,0,0,0,.643-7.465s-3.293-1.487-2.124-3.4c0,0,.657-.8,1.333-.515a.325.325,0,0,0,.466-.281c.025-1.387.272-3.454,2.5-3.666,0,0,2.674-.382,2.974,4.316,0,0,.937,15.2-.672,22.28" transform="translate(3967.968 745.068)" fill="#fff"/>
            <path id="路径_353" data-name="路径 353" d="M-3961.292-718.106a.549.549,0,0,1-.12-.013.536.536,0,0,1-.4-.642c1.573-6.922.668-21.977.659-22.128a4.809,4.809,0,0,0-1.234-3.409,1.608,1.608,0,0,0-1.135-.409c-1.395.133-2,1.073-2.035,3.144a.848.848,0,0,1-.382.7.888.888,0,0,1-.828.071c-.234-.1-.584.221-.69.335a.954.954,0,0,0-.107.8c.259.84,1.544,1.583,2.017,1.8a.533.533,0,0,1,.314.5c0,.04-.124,3.979-.648,7.527a.536.536,0,0,1-.609.452.535.535,0,0,1-.452-.609c.426-2.885.582-6.037.625-7.061a4.642,4.642,0,0,1-2.271-2.294,2.047,2.047,0,0,1,.237-1.71.522.522,0,0,1,.045-.062,1.915,1.915,0,0,1,1.683-.748c.04-1.161.31-3.652,2.981-3.907a2.621,2.621,0,0,1,1.909.624c.968.787,1.523,2.2,1.65,4.192.038.625.923,15.363-.684,22.433A.535.535,0,0,1-3961.292-718.106Z" transform="translate(3968.682 745.785)" fill="#231815"/>
          </g>
          <path id="路径_354" data-name="路径 354" d="M-3964.022-720a6.707,6.707,0,0,0,5.04.322s.858,14.261-1.61,17.692l-5.36-13.3Z" transform="translate(4000.851 746.066)" fill="#c0e4ea"/>
          <path id="路径_355" data-name="路径 355" d="M-3994.139-748.138a.429.429,0,0,1-.429-.429v-4.081a.429.429,0,0,1,.429-.429.43.43,0,0,1,.429.429v4.081A.43.43,0,0,1-3994.139-748.138Z" transform="translate(4017.195 764.956)"/>
          <path id="路径_356" data-name="路径 356" d="M-3996.076-756.828c-1.054.03-1.884.37-1.884,1.567a1.809,1.809,0,0,0,1.884,1.563,1.809,1.809,0,0,0,1.883-1.563C-3994.193-756.458-3995.023-756.8-3996.076-756.828Z" transform="translate(4019.132 767.099)" fill="#231815"/>
          <path id="路径_357" data-name="路径 357" d="M-4023.036-731.94" transform="translate(4033.452 752.885)" fill="#fff"/>
          <path id="路径_358" data-name="路径 358" d="M-4025.036-731.606" transform="translate(4034.595 752.694)" fill="none" stroke="#231815" stroke-linecap="round" stroke-linejoin="round" stroke-width="2.5"/>
          <path id="路径_359" data-name="路径 359" d="M-4044.221-692.053c-.105,0-.214,0-.326-.013a2.625,2.625,0,0,1-1.772-.946c-.809-.934-1.112-2.4-.9-4.358-.108-1.117-1.346-16.468,8.989-35.21a.537.537,0,0,1,.729-.211.536.536,0,0,1,.211.728c-10.518,19.073-8.875,34.479-8.856,34.632a.593.593,0,0,1,0,.121,4.815,4.815,0,0,0,.624,3.573,1.611,1.611,0,0,0,1.047.6c1.4.112,2.153-.71,2.549-2.744a.848.848,0,0,1,.5-.618.887.887,0,0,1,.827.073c.214.137.613-.116.739-.211a.958.958,0,0,0,.243-.766c-.109-.872-1.245-1.827-1.675-2.12a.536.536,0,0,1-.222-.55c.29-1.413,2.9-13.864,5.269-15.752a.535.535,0,0,1,.752.085.536.536,0,0,1-.084.754c-1.532,1.222-3.689,9.387-4.817,14.793a4.642,4.642,0,0,1,1.84,2.656,2.045,2.045,0,0,1-.53,1.643.6.6,0,0,1-.054.053,1.918,1.918,0,0,1-1.789.445C-4041.165-694.307-4041.815-692.053-4044.221-692.053Z" transform="translate(4047.323 753.408)" fill="#231815"/>
          <g id="组_192" data-name="组 192" transform="translate(20.063 14.969)">
            <path id="路径_360" data-name="路径 360" d="M-3997.057-743.651l-.268,0a2.635,2.635,0,0,1-1.437-.491l-1.155-1.032,5.461-.076-.836.79A2.586,2.586,0,0,1-3997.057-743.651Z" transform="translate(4000.187 745.515)" fill="#231815"/>
            <path id="路径_361" data-name="路径 361" d="M-3997.688-743.736a2.878,2.878,0,0,1-1.623-.569l-1.144-1.023a.269.269,0,0,1-.073-.294.27.27,0,0,1,.248-.175l5.461-.076a.281.281,0,0,1,.252.168.27.27,0,0,1-.064.3l-.836.79a2.835,2.835,0,0,1-1.947.879h0l-.268,0Zm.272-.272h0Zm-2.167-1.261.64.574a2.342,2.342,0,0,0,1.254.422l.269,0a2.325,2.325,0,0,0,1.574-.721l.347-.328Z" transform="translate(4000.544 745.873)" fill="#231815"/>
          </g>
          <path id="路径_362" data-name="路径 362" d="M-3994.611-676.868a.507.507,0,0,1-.056,0,.535.535,0,0,1-.476-.589c.2-1.928-.032-13.8-.322-16.287a100.368,100.368,0,0,1-.188-15,.538.538,0,0,1,.571-.5.535.535,0,0,1,.5.57,99.182,99.182,0,0,0,.184,14.806c.3,2.6.536,14.5.323,16.524A.537.537,0,0,1-3994.611-676.868Z" transform="translate(4017.93 739.927)" fill="#231815"/>
          <path id="路径_363" data-name="路径 363" d="M-3998.225-634.862a.5.5,0,0,1-.081-.006,100.362,100.362,0,0,0-13.08-.209c-3.935.213-21.255.215-21.43.215a.536.536,0,0,1-.535-.536.536.536,0,0,1,.535-.536c.175,0,17.466,0,21.373-.214a101.7,101.7,0,0,1,13.3.22.537.537,0,0,1,.451.61A.538.538,0,0,1-3998.225-634.862Z" transform="translate(4039.344 698.242)" fill="#231815"/>
          <path id="路径_364" data-name="路径 364" d="M-3962.151-716.176a.537.537,0,0,1-.182-.032.536.536,0,0,1-.321-.687c2.612-7.208,1.51-23.824,1.5-23.991a4.813,4.813,0,0,0-1.234-3.413,1.608,1.608,0,0,0-1.135-.409c-1.395.133-2,1.073-2.035,3.144a.848.848,0,0,1-.382.7.887.887,0,0,1-.828.071c-.234-.1-.584.221-.69.335a.954.954,0,0,0-.107.8c.259.84,1.544,1.583,2.017,1.8a.533.533,0,0,1,.314.5c0,.04-.124,3.979-.648,7.527a.536.536,0,0,1-.609.452.535.535,0,0,1-.452-.609c.426-2.885.582-6.037.625-7.061a4.642,4.642,0,0,1-2.271-2.294,2.047,2.047,0,0,1,.237-1.71.522.522,0,0,1,.045-.062,1.915,1.915,0,0,1,1.683-.748c.04-1.161.31-3.652,2.981-3.907a2.621,2.621,0,0,1,1.909.624c.968.787,1.523,2.2,1.65,4.192.047.688,1.128,17.007-1.561,24.427A.535.535,0,0,1-3962.151-716.176Z" transform="translate(4002.411 760.792)" fill="#231815"/>
          <g id="组_194" data-name="组 194" transform="translate(9.084 18.102)">
            <path id="路径_365" data-name="路径 365" d="M-3990.021-716.827a8.775,8.775,0,0,1-5.153-2.12.536.536,0,0,1-.1-.751.536.536,0,0,1,.751-.1c2.313,1.759,4.33,2.3,6,1.606,3.856-1.6,4.905-9.18,4.915-9.256a.536.536,0,0,1,.6-.461.536.536,0,0,1,.461.6c-.044.336-1.14,8.262-5.564,10.1A4.913,4.913,0,0,1-3990.021-716.827Z" transform="translate(4008.578 732.485)" fill="#231815"/>
            <g id="组_193" data-name="组 193" transform="translate(24.471)">
              <circle id="椭圆_28" data-name="椭圆 28" cx="2.867" cy="2.867" r="2.867" transform="translate(0.536 0.536)" fill="#ccc"/>
              <path id="路径_366" data-name="路径 366" d="M-3965.684-731.763a3.405,3.405,0,0,1-3.4-3.4,3.406,3.406,0,0,1,3.4-3.4,3.407,3.407,0,0,1,3.4,3.4A3.407,3.407,0,0,1-3965.684-731.763Zm0-5.734a2.333,2.333,0,0,0-2.33,2.331,2.333,2.333,0,0,0,2.33,2.331,2.334,2.334,0,0,0,2.331-2.331A2.333,2.333,0,0,0-3965.684-737.5Z" transform="translate(3969.086 738.569)" fill="#231815"/>
            </g>
            <circle id="椭圆_29" data-name="椭圆 29" cx="1.183" cy="1.183" r="1.183" transform="translate(26.691 2.221)" fill="#4d4d4d"/>
            <path id="路径_367" data-name="路径 367" d="M-4012.193-722.643c-.136,0-.219,0-.245,0a.518.518,0,0,1-.1-.013c-6.4-1.459-10.624-3.807-12.549-6.98a6.247,6.247,0,0,1-.961-4.544.536.536,0,0,1,.654-.383.536.536,0,0,1,.384.655,5.224,5.224,0,0,0,.863,3.754c1.222,1.987,4.262,4.714,11.8,6.441a16.9,16.9,0,0,0,10.311-3.7.536.536,0,0,1,.755.071.536.536,0,0,1-.071.755A17.748,17.748,0,0,1-4012.193-722.643Z" transform="translate(4026.143 736.294)" fill="#231815"/>
          </g>
          <path id="路径_368" data-name="路径 368" d="M-3958.375-653.6a.534.534,0,0,1-.227-.051.537.537,0,0,1-.258-.713c3.514-7.485,3.4-17.245,3.4-17.343a62.44,62.44,0,0,0-1.046-11.318.537.537,0,0,1,.442-.616.536.536,0,0,1,.616.442,63.516,63.516,0,0,1,1.061,11.5c.005.383.117,10.075-3.505,17.79A.534.534,0,0,1-3958.375-653.6Z" transform="translate(3996.83 725.306)"/>
          <path id="路径_369" data-name="路径 369" d="M-4030.626-629.7a.536.536,0,0,1-.468-.273,52.6,52.6,0,0,1-4.848-13.38.538.538,0,0,1,.416-.634.536.536,0,0,1,.635.416,51.361,51.361,0,0,0,4.732,13.073.536.536,0,0,1-.205.73A.528.528,0,0,1-4030.626-629.7Z" transform="translate(4040.83 702.662)"/>
          <path id="路径_370" data-name="路径 370" d="M-3964.45-654.258c-2.45,0-4.285-.632-5.473-1.888a5.936,5.936,0,0,1-1.355-4.834.536.536,0,0,1,.526-.438h8.579a.536.536,0,0,1,.536.536.536.536,0,0,1-.536.536h-8.1a4.712,4.712,0,0,0,1.132,3.47c1.282,1.349,3.577,1.819,6.822,1.4a.539.539,0,0,1,.6.462.537.537,0,0,1-.463.6A17.653,17.653,0,0,1-3964.45-654.258Z" transform="translate(4003.936 712.609)" fill="#231815"/>
          <path id="路径_371" data-name="路径 371" d="M-4030.164-654.969a14.392,14.392,0,0,1-3-.347.536.536,0,0,1-.412-.637.536.536,0,0,1,.636-.412c2.986.639,5.238.332,6.693-.913a5.914,5.914,0,0,0,1.823-4.1l-7.9-.134a.537.537,0,0,1-.528-.545.529.529,0,0,1,.545-.527l8.435.143a.537.537,0,0,1,.527.506,7.221,7.221,0,0,1-2.206,5.472A6.865,6.865,0,0,1-4030.164-654.969Z" transform="translate(4039.479 713.275)" fill="#231815"/>
          <g id="组_195" data-name="组 195" transform="translate(29.881 9.607)">
            <path id="路径_372" data-name="路径 372" d="M-3976.651-757.377a2.015,2.015,0,0,0,2.551.062" transform="translate(3977.08 757.805)" fill="#fff"/>
            <path id="路径_373" data-name="路径 373" d="M-3975.886-757.021a2.546,2.546,0,0,1-1.622-.606.43.43,0,0,1-.035-.606.43.43,0,0,1,.6-.036,1.562,1.562,0,0,0,2.009.042.428.428,0,0,1,.6.082.429.429,0,0,1-.082.6A2.4,2.4,0,0,1-3975.886-757.021Z" transform="translate(3977.652 758.376)" fill="#231815"/>
          </g>
          <g id="组_196" data-name="组 196" transform="translate(12.597 9.607)">
            <path id="路径_374" data-name="路径 374" d="M-4014.214-757.377a1.987,1.987,0,0,1-2.738.062" transform="translate(4017.381 757.805)" fill="#fff"/>
            <path id="路径_375" data-name="路径 375" d="M-4016.205-756.923a2.429,2.429,0,0,1-1.6-.636.429.429,0,0,1-.048-.6.428.428,0,0,1,.6-.048,1.548,1.548,0,0,0,2.157-.038.429.429,0,0,1,.607,0,.427.427,0,0,1,0,.606A2.542,2.542,0,0,1-4016.205-756.923Z" transform="translate(4017.952 758.376)" fill="#231815"/>
          </g>
          <g id="组_197" data-name="组 197" transform="translate(20.703 9.607)">
            <line id="直线_3" data-name="直线 3" x2="4.146" transform="translate(0.429 0.429)" fill="#fff"/>
            <path id="路径_376" data-name="路径 376" d="M-3994.477-757.518h-4.145a.43.43,0,0,1-.43-.429.429.429,0,0,1,.43-.429h4.145a.428.428,0,0,1,.429.429A.429.429,0,0,1-3994.477-757.518Z" transform="translate(3999.052 758.376)" fill="#231815"/>
          </g>
          <circle id="椭圆_30" data-name="椭圆 30" cx="0.667" cy="0.667" r="0.667" transform="translate(17.728 9.368)" fill="#231815"/>
          <circle id="椭圆_31" data-name="椭圆 31" cx="0.667" cy="0.667" r="0.667" transform="translate(27.5 9.368)" fill="#231815"/>
          <g id="组_198" data-name="组 198" transform="translate(15.336 7.098)">
            <circle id="椭圆_32" data-name="椭圆 32" cx="2.508" cy="2.508" r="2.508" transform="translate(0.429 0.429)" fill="#d4ecf0"/>
            <path id="路径_377" data-name="路径 377" d="M-4008.63-758.351a2.94,2.94,0,0,1-2.937-2.937,2.94,2.94,0,0,1,2.937-2.937,2.941,2.941,0,0,1,2.938,2.938A2.941,2.941,0,0,1-4008.63-758.351Zm0-5.016a2.081,2.081,0,0,0-2.079,2.08,2.081,2.081,0,0,0,2.079,2.079,2.082,2.082,0,0,0,2.08-2.079A2.082,2.082,0,0,0-4008.63-763.367Z" transform="translate(4011.566 764.225)" fill="#231815"/>
          </g>
          <g id="组_199" data-name="组 199" transform="translate(24.866 7.098)">
            <circle id="椭圆_33" data-name="椭圆 33" cx="2.508" cy="2.508" r="2.508" transform="translate(0.429 0.429)" fill="#d4ecf0"/>
            <path id="路径_378" data-name="路径 378" d="M-3986.409-758.351a2.94,2.94,0,0,1-2.937-2.937,2.94,2.94,0,0,1,2.937-2.937,2.94,2.94,0,0,1,2.936,2.938A2.94,2.94,0,0,1-3986.409-758.351Zm0-5.016a2.081,2.081,0,0,0-2.08,2.08,2.081,2.081,0,0,0,2.08,2.079,2.081,2.081,0,0,0,2.079-2.079A2.082,2.082,0,0,0-3986.409-763.367Z" transform="translate(3989.346 764.225)" fill="#231815"/>
          </g>
          <g id="组_200" data-name="组 200" transform="translate(17.047 7.502)">
            <path id="路径_379" data-name="路径 379" d="M-4007.112-761.446a.214.214,0,0,1-.16-.071.215.215,0,0,1,.016-.3l1.554-1.408a.214.214,0,0,1,.3.015.215.215,0,0,1-.014.3l-1.556,1.409A.213.213,0,0,1-4007.112-761.446Z" transform="translate(4007.433 763.284)" fill="#231815"/>
            <path id="路径_380" data-name="路径 380" d="M-4004.718-758.344a.214.214,0,0,1-.157-.069.214.214,0,0,1,.011-.3l.958-.886a.213.213,0,0,1,.3.011.216.216,0,0,1-.011.3l-.957.886A.214.214,0,0,1-4004.718-758.344Z" transform="translate(4006.067 761.214)" fill="#231815"/>
            <path id="路径_381" data-name="路径 381" d="M-4007.363-760.052a.216.216,0,0,1-.161-.072.215.215,0,0,1,.019-.3l2.412-2.144a.214.214,0,0,1,.3.018.214.214,0,0,1-.017.3l-2.413,2.144A.216.216,0,0,1-4007.363-760.052Z" transform="translate(4007.578 762.908)" fill="#231815"/>
          </g>
          <g id="组_201" data-name="组 201" transform="translate(26.643 7.502)">
            <path id="路径_382" data-name="路径 382" d="M-3984.737-761.446a.213.213,0,0,1-.159-.071.215.215,0,0,1,.015-.3l1.554-1.408a.214.214,0,0,1,.3.015.214.214,0,0,1-.015.3l-1.555,1.409A.211.211,0,0,1-3984.737-761.446Z" transform="translate(3985.058 763.284)" fill="#231815"/>
            <path id="路径_383" data-name="路径 383" d="M-3982.343-758.344a.216.216,0,0,1-.158-.069.215.215,0,0,1,.012-.3l.956-.886a.214.214,0,0,1,.3.011.215.215,0,0,1-.011.3l-.957.886A.215.215,0,0,1-3982.343-758.344Z" transform="translate(3983.693 761.214)" fill="#231815"/>
            <path id="路径_384" data-name="路径 384" d="M-3984.988-760.052a.214.214,0,0,1-.16-.072.215.215,0,0,1,.018-.3l2.412-2.144a.214.214,0,0,1,.3.018.214.214,0,0,1-.018.3l-2.411,2.144A.216.216,0,0,1-3984.988-760.052Z" transform="translate(3985.202 762.908)" fill="#231815"/>
          </g>
          <g id="组_202" data-name="组 202" transform="translate(24.861 35.649)">
            <circle id="椭圆_34" data-name="椭圆 34" cx="1.032" cy="1.032" r="1.032" transform="translate(0.429 0.429)" fill="#fff"/>
            <path id="路径_385" data-name="路径 385" d="M-3987.9-694.735a1.463,1.463,0,0,1-1.461-1.461,1.463,1.463,0,0,1,1.461-1.461,1.464,1.464,0,0,1,1.462,1.461A1.464,1.464,0,0,1-3987.9-694.735Zm0-2.065a.6.6,0,0,0-.6.6.6.6,0,0,0,.6.6.6.6,0,0,0,.6-.6A.6.6,0,0,0-3987.9-696.8Z" transform="translate(3989.358 697.657)" fill="#231815"/>
          </g>
          <g id="组_203" data-name="组 203" transform="translate(24.861 42.189)">
            <circle id="椭圆_35" data-name="椭圆 35" cx="1.032" cy="1.032" r="1.032" transform="translate(0.429 0.429)" fill="#fff"/>
            <path id="路径_386" data-name="路径 386" d="M-3987.9-679.485a1.463,1.463,0,0,1-1.461-1.461,1.463,1.463,0,0,1,1.461-1.461,1.464,1.464,0,0,1,1.462,1.461A1.464,1.464,0,0,1-3987.9-679.485Zm0-2.065a.6.6,0,0,0-.6.6.6.6,0,0,0,.6.6.6.6,0,0,0,.6-.6A.6.6,0,0,0-3987.9-681.549Z" transform="translate(3989.358 682.407)" fill="#231815"/>
          </g>
          <g id="组_204" data-name="组 204" transform="translate(25.182 48.73)">
            <circle id="椭圆_36" data-name="椭圆 36" cx="1.032" cy="1.032" r="1.032" transform="translate(0.429 0.429)" fill="#fff"/>
            <path id="路径_387" data-name="路径 387" d="M-3987.148-664.235a1.463,1.463,0,0,1-1.461-1.461,1.463,1.463,0,0,1,1.461-1.461,1.464,1.464,0,0,1,1.462,1.461A1.463,1.463,0,0,1-3987.148-664.235Zm0-2.065a.6.6,0,0,0-.6.6.6.6,0,0,0,.6.6.6.6,0,0,0,.6-.6A.6.6,0,0,0-3987.148-666.3Z" transform="translate(3988.609 667.157)" fill="#231815"/>
          </g>
        </g>
        <path id="路径_388" data-name="路径 388" d="M-3989.23-714.62a9.17,9.17,0,0,1-6.006-2.666.537.537,0,0,1,.015-.757.537.537,0,0,1,.758.014c.031.032,3.128,3.182,6.834,2.108,3.734-1.08,5.709-8.513,5.727-8.588a.537.537,0,0,1,.654-.384.535.535,0,0,1,.384.653c-.086.33-2.148,8.1-6.466,9.349A6.817,6.817,0,0,1-3989.23-714.62Z" transform="translate(4017.661 748.87)" fill="#231815"/>
        <path id="路径_389" data-name="路径 389" d="M-4043.626-664.113a13.5,13.5,0,0,1-2.917-.329.534.534,0,0,1-.394-.647.536.536,0,0,1,.647-.394c.041.01,4.158.984,6.067-.639a.536.536,0,0,1,.756.061.537.537,0,0,1-.062.756A6.357,6.357,0,0,1-4043.626-664.113Z" transform="translate(4047.111 715.369)" fill="#231815"/>
        <path id="路径_390" data-name="路径 390" d="M-3959.983-719.052c-2.086,0-2.549-.844-2.637-1.068l1-.385a.16.16,0,0,0-.02-.042c.166.264,1.286.785,4.434.035a.537.537,0,0,1,.647.4.537.537,0,0,1-.4.646A13.3,13.3,0,0,1-3959.983-719.052Z" transform="translate(3998.949 746.379)" fill="#231815"/>
      </g>
    </g>
  </g>
</svg>
